<?xml version="1.0" standalone="no"?>
<!DOCTYPE svg PUBLIC "-//W3C//DTD SVG 20010904//EN"
 "http://www.w3.org/TR/2001/REC-SVG-20010904/DTD/svg10.dtd">
<svg version="1.0" xmlns="http://www.w3.org/2000/svg"
 width="234.000000pt" height="234.000000pt" viewBox="0 0 234.000000 234.000000"
 preserveAspectRatio="xMidYMid meet">
<metadata>
Created by potrace 1.14, written by Peter Selinger 2001-2017
</metadata>
<g transform="translate(0.000000,234.000000) scale(0.100000,-0.100000)"
fill="#000000" stroke="none">
<path d="M1067 2319 c7 -7 15 -10 18 -7 3 3 -2 9 -12 12 -14 6 -15 5 -6 -5z"/>
<path d="M1026 2298 c3 -5 10 -6 15 -3 13 9 11 12 -6 12 -8 0 -12 -4 -9 -9z"/>
<path d="M870 2276 c0 -2 8 -10 18 -17 15 -13 16 -12 3 4 -13 16 -21 21 -21
13z"/>
<path d="M745 2240 c-3 -6 1 -7 9 -4 18 7 21 14 7 14 -6 0 -13 -4 -16 -10z"/>
<path d="M890 2221 c0 -6 4 -13 10 -16 6 -3 7 1 4 9 -7 18 -14 21 -14 7z"/>
<path d="M947 2179 c7 -7 15 -10 18 -7 3 3 -2 9 -12 12 -14 6 -15 5 -6 -5z"/>
<path d="M1046 2182 c-3 -5 1 -9 9 -9 8 0 12 4 9 9 -3 4 -7 8 -9 8 -2 0 -6 -4
-9 -8z"/>
<path d="M630 2146 c0 -2 7 -7 16 -10 8 -3 12 -2 9 4 -6 10 -25 14 -25 6z"/>
<path d="M946 2142 c-2 -4 4 -8 14 -8 10 0 16 4 14 8 -3 4 -9 8 -14 8 -5 0
-11 -4 -14 -8z"/>
<path d="M835 2100 c2 -27 10 -33 12 -10 1 11 -2 22 -6 24 -4 3 -7 -4 -6 -14z"/>
<path d="M686 2098 c3 -5 10 -6 15 -3 13 9 11 12 -6 12 -8 0 -12 -4 -9 -9z"/>
<path d="M936 2093 c-6 -14 -5 -15 5 -6 7 7 10 15 7 18 -3 3 -9 -2 -12 -12z"/>
<path d="M1005 2099 c-3 -4 2 -6 10 -5 21 3 28 13 10 13 -9 0 -18 -4 -20 -8z"/>
<path d="M1661 2033 c24 -31 40 -46 44 -41 5 5 -40 58 -50 58 -4 0 -1 -8 6
-17z"/>
<path d="M797 2033 c-10 -9 -9 -23 1 -23 5 0 9 7 9 15 0 17 -1 18 -10 8z"/>
<path d="M916 2027 c3 -10 9 -15 12 -12 3 3 0 11 -7 18 -10 9 -11 8 -5 -6z"/>
<path d="M955 2029 c-4 -6 -5 -12 -2 -15 2 -3 7 2 10 11 7 17 1 20 -8 4z"/>
<path d="M1612 2014 c-7 -8 -8 -14 -3 -14 10 0 25 19 20 25 -2 1 -10 -3 -17
-11z"/>
<path d="M362 2005 c8 -9 -16 -35 -32 -35 -6 0 -8 -4 -5 -10 3 -5 2 -10 -4
-10 -6 0 -19 -10 -30 -22 -17 -17 -18 -24 -8 -37 10 -14 10 -14 -4 -3 -13 10
-19 10 -29 -2 -6 -9 -8 -21 -4 -27 4 -7 3 -9 -2 -6 -11 6 -57 -57 -57 -78 0
-8 -3 -12 -7 -10 -9 6 -64 -94 -56 -102 3 -3 -1 -11 -9 -17 -15 -12 -68 -163
-81 -231 -14 -77 -15 -91 -19 -220 -3 -82 1 -155 9 -198 7 -37 13 -71 12 -75
-1 -4 9 -8 22 -10 17 -3 22 -8 18 -20 -6 -15 -5 -16 6 -1 16 19 27 21 53 6 11
-6 24 -10 29 -9 4 2 15 -3 24 -10 13 -11 14 -11 8 1 -7 10 -3 11 15 5 13 -4
36 -8 52 -8 15 -1 27 -3 27 -6 0 -5 19 -9 58 -12 7 -1 10 -8 7 -17 -5 -12 -3
-13 5 -5 6 6 12 20 13 32 1 24 12 19 12 -5 0 -9 6 -18 14 -21 9 -3 11 0 6 8
-6 9 -3 10 12 2 11 -6 33 -13 49 -16 16 -2 31 -5 34 -6 9 -4 25 -7 43 -8 9 -1
17 -7 17 -13 0 -5 -5 -7 -12 -3 -7 4 -8 3 -4 -4 4 -7 2 -12 -5 -12 -9 0 -9 -4
1 -15 6 -8 8 -20 4 -26 -5 -8 -3 -9 5 -5 7 5 10 14 7 22 -6 15 11 53 28 65 4
4 3 10 -3 13 -6 4 -11 16 -11 28 0 16 -3 18 -14 9 -10 -8 -16 -9 -21 -1 -4 6
-1 9 7 8 9 -2 12 6 10 24 -1 14 2 29 6 32 5 3 9 -6 9 -20 1 -15 5 -29 10 -33
6 -3 9 -14 7 -25 -2 -13 0 -16 8 -8 11 11 20 50 20 89 0 12 5 21 11 20 6 -1
12 3 12 8 1 6 5 18 9 27 4 9 9 25 11 35 2 10 4 18 5 18 2 0 9 28 12 50 2 13
-3 20 -14 20 -10 0 -17 -4 -16 -10 1 -5 9 -9 16 -7 8 2 11 -1 7 -7 -8 -15 -35
-14 -35 1 0 6 -3 8 -7 4 -4 -4 3 -16 17 -27 21 -16 21 -18 5 -13 -15 4 -16 3
-6 -4 11 -8 11 -10 0 -15 -11 -4 -11 -6 1 -6 10 -1 7 -6 -8 -17 -14 -9 -21
-22 -18 -31 4 -9 2 -11 -6 -7 -6 4 -8 3 -4 -4 3 -6 2 -14 -4 -17 -8 -5 -8 -11
0 -20 8 -9 8 -15 0 -20 -6 -3 -7 -12 -3 -18 4 -7 0 -6 -10 2 -9 7 -14 18 -10
25 9 14 13 36 6 36 -2 0 -14 -5 -25 -11 -13 -7 -18 -7 -14 -1 3 6 2 14 -4 17
-8 5 -7 11 1 21 6 8 8 14 3 14 -5 0 -14 11 -21 25 -6 14 -7 23 -2 19 5 -3 9 0
9 5 0 6 -5 11 -11 11 -6 0 -9 6 -6 14 3 7 0 19 -6 25 -6 6 -8 11 -4 11 4 0 3
9 -3 21 -9 15 -8 24 2 36 11 14 10 15 -12 9 -19 -6 -21 -5 -10 3 8 6 11 11 7
11 -4 0 -2 10 4 23 12 21 11 21 -6 7 -10 -8 -16 -10 -12 -3 4 6 3 14 -2 17 -4
3 -7 19 -5 36 3 23 0 29 -9 24 -8 -5 -7 -2 2 9 7 9 9 17 3 17 -10 0 -22 30
-26 66 -2 11 -6 26 -11 33 -5 10 -2 11 14 6 21 -6 21 -5 9 14 -7 12 -14 17
-16 11 -8 -22 -19 -8 -17 20 2 20 -2 30 -11 30 -17 0 -18 12 -2 28 9 9 9 12
-2 12 -9 1 -5 6 9 14 15 8 20 16 12 20 -6 4 -11 2 -11 -4 0 -15 -25 -7 -26 8
-1 7 -2 13 -4 15 -1 1 -4 15 -6 32 -3 16 -11 33 -17 37 -8 5 -8 8 -1 8 6 0 11
7 11 15 0 10 -6 14 -16 10 -13 -4 -13 -3 1 8 10 8 13 18 8 26 -5 10 -9 10 -13
2 -3 -7 -4 -7 -3 1 2 7 -6 27 -18 43 -18 27 -18 29 -1 15 17 -14 18 -13 12 4
-4 10 -2 25 5 34 11 13 9 14 -12 8 -20 -6 -22 -5 -10 4 12 10 11 11 -8 7 -12
-3 -20 -1 -16 4 3 5 11 9 19 9 8 0 17 5 21 12 5 7 1 9 -13 6 -16 -4 -20 -1
-18 20 0 14 7 27 15 30 13 3 13 2 0 -8 -13 -10 -13 -11 0 -7 8 2 15 9 15 15 0
7 5 11 10 10 6 -2 9 -6 8 -10 -4 -10 11 -10 20 -1 4 3 -1 12 -11 20 -9 8 -11
11 -3 7 9 -5 12 -3 7 4 -5 8 -1 10 10 5 13 -5 15 -3 9 8 -7 11 -6 12 6 2 8 -6
18 -11 22 -11 5 0 12 -4 15 -8 4 -4 2 -4 -5 0 -6 3 -14 2 -18 -4 -4 -6 -12 -7
-18 -4 -9 5 -9 4 -1 -5 9 -10 17 -10 34 -1 15 8 20 8 16 1 -5 -7 -1 -8 10 -4
13 5 16 3 11 -10 -4 -10 -2 -16 6 -14 7 1 11 -7 9 -18 -2 -18 0 -17 19 5 13
16 19 19 15 8 -3 -10 1 -21 10 -26 9 -5 15 -12 15 -15 -3 -21 0 -27 10 -21 8
5 8 9 -1 14 -9 5 -9 9 -1 14 6 4 11 2 11 -5 0 -7 7 -4 15 7 15 19 15 19 9 -1
-6 -16 -5 -18 7 -7 7 6 18 12 24 12 5 0 3 -5 -5 -10 -11 -7 -11 -10 -2 -10 7
0 10 -5 6 -11 -4 -8 -9 -7 -16 2 -8 11 -9 11 -5 -1 2 -8 12 -15 23 -15 13 0
18 -6 16 -20 -2 -16 -1 -17 7 -5 5 8 7 18 5 22 -3 4 0 8 5 8 6 0 11 -5 11 -12
0 -9 3 -9 12 0 7 7 17 12 23 12 5 0 3 -5 -5 -10 -11 -7 -11 -10 -2 -10 7 0 10
-5 6 -12 -4 -7 -3 -8 5 -4 6 4 20 2 29 -6 15 -12 16 -11 3 5 -9 11 -10 17 -2
17 6 0 11 -5 11 -11 0 -5 6 -7 13 -3 9 6 8 3 -1 -9 -12 -14 -11 -16 7 -14 12
1 21 5 21 9 0 15 -47 38 -65 32 -13 -5 -16 -4 -11 4 10 17 -34 32 -56 20 -12
-5 -18 -5 -18 2 0 5 6 10 12 10 17 0 -24 27 -47 32 -11 1 -28 10 -38 18 -10 8
-19 13 -21 10 -2 -3 -13 3 -24 13 -10 10 -29 20 -42 22 -12 2 -27 8 -34 13
-16 11 -73 35 -64 27z m138 -70 c0 -15 -21 -12 -30 5 -11 20 -10 21 9 10 12
-6 21 -13 21 -15z m45 -25 c17 -19 17 -19 -5 -15 -26 5 -40 15 -21 15 7 0 9 5
6 10 -10 17 1 11 20 -10z m-255 -104 c0 -3 -4 -8 -10 -11 -5 -3 -10 -1 -10 4
0 6 5 11 10 11 6 0 10 -2 10 -4z m-23 -75 c0 -11 -5 -18 -9 -15 -4 3 -5 11 -1
19 7 21 12 19 10 -4z m-122 -111 c3 -5 1 -10 -4 -10 -6 0 -11 5 -11 10 0 6 2
10 4 10 3 0 8 -4 11 -10z m100 -8 c-3 -3 -11 0 -18 7 -9 10 -8 11 6 5 10 -3
15 -9 12 -12z m58 3 c4 -8 3 -16 -1 -19 -4 -3 -9 4 -9 15 -2 23 3 25 10 4z
m47 5 c0 -5 -5 -10 -11 -10 -5 0 -7 5 -4 10 3 6 8 10 11 10 2 0 4 -4 4 -10z
m-126 -58 c3 -5 -1 -9 -9 -9 -8 0 -12 4 -9 9 3 4 7 8 9 8 2 0 6 -4 9 -8z m66
4 c0 -3 -4 -8 -10 -11 -5 -3 -10 -1 -10 4 0 6 5 11 10 11 6 0 10 -2 10 -4z
m-185 -26 c3 -5 1 -10 -4 -10 -6 0 -11 5 -11 10 0 6 2 10 4 10 3 0 8 -4 11
-10z m45 0 c0 -5 -2 -10 -4 -10 -3 0 -8 5 -11 10 -3 6 -1 10 4 10 6 0 11 -4
11 -10z m170 -16 c0 -8 -19 -13 -24 -6 -3 5 1 9 9 9 8 0 15 -2 15 -3z m-176
-46 c-3 -4 -11 -5 -19 -1 -21 7 -19 12 4 10 11 0 18 -5 15 -9z m201 -37 c3 -5
2 -12 -3 -15 -5 -3 -9 1 -9 9 0 17 3 19 12 6z m-179 -16 c-1 -8 -5 -17 -8 -21
-5 -4 -4 16 1 34 3 9 9 -1 7 -13z m104 -5 c0 -5 -2 -10 -4 -10 -3 0 -8 5 -11
10 -3 6 -1 10 4 10 6 0 11 -4 11 -10z m-43 -32 c2 -17 0 -19 -7 -8 -5 8 -6 18
-4 22 8 12 10 10 11 -14z m138 -28 c3 -5 1 -10 -4 -10 -6 0 -11 5 -11 10 0 6
2 10 4 10 3 0 8 -4 11 -10z m-61 -38 c3 -5 -1 -9 -9 -9 -8 0 -12 4 -9 9 3 4 7
8 9 8 2 0 6 -4 9 -8z m81 -1 c3 -5 2 -12 -3 -15 -5 -3 -9 1 -9 9 0 17 3 19 12
6z m-231 -39 c3 -5 -1 -9 -9 -9 -8 0 -12 4 -9 9 3 4 7 8 9 8 2 0 6 -4 9 -8z
m-44 -22 c0 -5 -5 -10 -11 -10 -5 0 -7 5 -4 10 3 6 8 10 11 10 2 0 4 -4 4 -10z
m194 -22 c-3 -4 -11 -5 -19 -1 -21 7 -19 12 4 10 11 0 18 -5 15 -9z m-139 -18
c3 -5 1 -10 -4 -10 -6 0 -11 5 -11 10 0 6 2 10 4 10 3 0 8 -4 11 -10z m214 -4
c9 -11 9 -16 -1 -22 -7 -4 -10 -4 -6 1 4 4 3 14 -3 22 -6 7 -9 13 -6 13 2 0
10 -6 16 -14z m-274 -15 c3 -5 2 -12 -3 -15 -5 -3 -9 1 -9 9 0 17 3 19 12 6z
m201 -3 c3 -4 -1 -5 -10 -4 -8 1 -18 5 -22 8 -3 4 1 5 10 4 8 -1 18 -5 22 -8z
m64 -32 c0 -3 -4 -8 -10 -11 -5 -3 -10 -1 -10 4 0 6 5 11 10 11 6 0 10 -2 10
-4z m17 -41 c0 -8 -4 -12 -9 -9 -5 3 -6 10 -3 15 9 13 12 11 12 -6z m-97 -5
c0 -5 -5 -10 -11 -10 -5 0 -7 5 -4 10 3 6 8 10 11 10 2 0 4 -4 4 -10z m-23
-45 c0 -8 -4 -12 -9 -9 -5 3 -6 10 -3 15 9 13 12 11 12 -6z m80 -30 c0 -8 -4
-12 -9 -9 -5 3 -6 10 -3 15 9 13 12 11 12 -6z m-262 -5 c3 -5 1 -10 -4 -10 -6
0 -11 5 -11 10 0 6 2 10 4 10 3 0 8 -4 11 -10z m45 0 c0 -5 -5 -10 -11 -10 -5
0 -7 5 -4 10 3 6 8 10 11 10 2 0 4 -4 4 -10z m380 -20 c0 -5 -5 -10 -11 -10
-5 0 -7 5 -4 10 3 6 8 10 11 10 2 0 4 -4 4 -10z m-403 -25 c0 -8 -4 -12 -9 -9
-5 3 -6 10 -3 15 9 13 12 11 12 -6z m263 5 c0 -5 -2 -10 -4 -10 -3 0 -8 5 -11
10 -3 6 -1 10 4 10 6 0 11 -4 11 -10z m-204 -15 c-1 -8 -5 -17 -8 -21 -5 -4
-4 16 1 34 3 9 9 -1 7 -13z m137 -40 c-7 -21 -12 -19 -10 4 0 11 5 18 9 15 4
-3 5 -11 1 -19z m-233 1 c0 -3 -4 -8 -10 -11 -5 -3 -10 -1 -10 4 0 6 5 11 10
11 6 0 10 -2 10 -4z m440 -6 c0 -5 -2 -10 -4 -10 -3 0 -8 5 -11 10 -3 6 -1 10
4 10 6 0 11 -4 11 -10z m-305 -19 c-9 -8 -36 -10 -30 -2 2 4 11 8 20 8 8 0 13
-3 10 -6z m45 -1 c0 -5 -2 -10 -4 -10 -3 0 -8 5 -11 10 -3 6 -1 10 4 10 6 0
11 -4 11 -10z m231 -53 c-10 -9 -11 -8 -5 6 3 10 9 15 12 12 3 -3 0 -11 -7
-18z"/>
<path d="M667 1999 c7 -7 15 -10 18 -7 3 3 -2 9 -12 12 -14 6 -15 5 -6 -5z"/>
<path d="M1536 1994 c-3 -8 -10 -12 -16 -9 -5 3 -10 2 -10 -4 0 -5 12 -9 28
-7 15 1 38 -5 52 -13 15 -10 21 -11 17 -3 -5 6 -4 12 2 12 6 0 11 5 11 11 0 5
-5 7 -10 4 -6 -3 -13 1 -16 9 -3 9 -11 16 -17 16 -5 0 -2 -9 8 -20 10 -11 13
-20 7 -20 -6 0 -13 4 -17 10 -3 5 -12 7 -20 3 -11 -4 -13 -1 -9 11 3 9 4 16 1
16 -3 0 -8 -7 -11 -16z"/>
<path d="M1635 2000 c-3 -5 -4 -14 -1 -19 3 -5 -3 -20 -14 -32 -15 -18 -22
-21 -28 -11 -6 8 -9 3 -9 -17 0 -29 1 -30 15 -10 9 13 21 18 35 14 12 -2 16
-2 10 1 -7 3 -13 10 -13 15 0 6 4 7 10 4 6 -4 7 1 3 12 -6 16 -5 16 10 4 9 -7
17 -9 17 -3 0 5 -7 12 -15 16 -8 3 -15 10 -15 16 0 6 5 8 10 5 6 -3 10 -1 10
4 0 14 -17 14 -25 1z"/>
<path d="M1670 1993 c0 -5 5 -14 10 -19 12 -12 2 -47 -11 -38 -5 3 -6 -2 -2
-12 5 -15 7 -14 16 2 6 11 14 21 18 24 4 3 -1 16 -12 29 -10 13 -19 19 -19 14z"/>
<path d="M945 1980 c-3 -6 1 -7 9 -4 18 7 21 14 7 14 -6 0 -13 -4 -16 -10z"/>
<path d="M1486 1967 c3 -9 10 -17 15 -17 5 0 18 -15 29 -32 13 -21 20 -27 20
-16 0 9 -4 19 -10 23 -5 3 -8 11 -6 18 1 7 1 8 -2 4 -2 -5 -15 2 -29 15 -18
17 -22 18 -17 5z"/>
<path d="M1466 1954 c7 -17 6 -18 -11 -4 -17 14 -17 12 1 -15 12 -16 19 -37
17 -45 -4 -13 -3 -13 6 0 6 9 7 18 1 24 -19 19 -10 29 10 11 28 -26 25 -11 -5
21 -19 21 -24 23 -19 8z"/>
<path d="M1555 1939 c6 -32 13 -34 13 -4 0 14 -4 25 -9 25 -4 0 -6 -10 -4 -21z"/>
<path d="M896 1942 c-3 -5 1 -9 9 -9 8 0 12 4 9 9 -3 4 -7 8 -9 8 -2 0 -6 -4
-9 -8z"/>
<path d="M1385 1939 c-4 -5 2 -6 12 -2 16 6 16 5 5 -9 -8 -10 -24 -15 -40 -13
-15 2 -21 2 -14 -1 6 -3 9 -11 5 -17 -4 -7 -1 -7 9 1 11 9 18 10 23 2 3 -5 1
-10 -4 -10 -6 0 -11 -5 -11 -11 0 -8 5 -8 15 1 8 7 12 16 10 21 -3 5 3 14 15
21 11 7 20 15 20 18 0 10 -39 9 -45 -1z"/>
<path d="M373 1927 c-3 -5 -10 -6 -17 -4 -6 3 -21 -2 -31 -10 -15 -12 -16 -14
-3 -10 20 7 31 -16 15 -33 -9 -9 -9 -11 -1 -7 14 8 27 -20 14 -28 -16 -10 -11
-25 8 -25 15 0 15 2 2 11 -13 9 -12 10 3 5 15 -5 16 -3 6 15 -9 19 -9 20 10
10 27 -15 34 -14 19 3 -7 8 -15 14 -18 14 -26 -1 -26 6 0 32 31 31 47 39 34
18 -4 -7 -3 -8 4 -4 7 4 12 11 12 16 0 10 -50 8 -57 -3z m5 -17 c-7 -11 -17
-20 -22 -20 -5 0 -1 9 9 20 10 11 20 20 22 20 2 0 -2 -9 -9 -20z"/>
<path d="M1437 1923 c-13 -12 -7 -23 11 -22 10 0 12 3 4 6 -6 2 -10 9 -6 14 6
10 0 12 -9 2z"/>
<path d="M426 1913 c-3 -4 -6 -11 -6 -17 0 -6 4 -5 9 3 6 9 11 10 15 2 4 -6 3
-11 -3 -11 -12 0 -7 -41 8 -66 12 -18 10 -8 -4 29 -4 10 -3 17 5 17 6 0 8 -4
5 -10 -3 -5 -1 -10 5 -10 7 0 10 6 7 13 -3 8 1 14 8 14 8 0 11 -7 7 -16 -5
-13 -3 -14 10 -3 13 10 17 10 21 -2 4 -10 1 -13 -7 -10 -15 6 -42 -23 -32 -34
4 -4 12 1 17 11 7 12 15 15 27 8 9 -4 25 -7 35 -6 9 2 17 -2 17 -8 0 -9 2 -9
8 -1 5 9 10 8 19 -1 10 -10 9 -14 -2 -19 -8 -3 -15 -11 -15 -18 0 -10 2 -10 9
1 6 9 11 10 15 2 4 -6 2 -11 -5 -11 -7 0 -9 -3 -5 -7 4 -4 16 3 27 17 11 14
18 19 17 11 -2 -7 3 -16 11 -18 9 -4 11 0 6 16 -4 13 -2 21 5 21 6 0 8 -5 4
-12 -4 -7 -3 -8 4 -4 8 5 10 1 5 -11 -6 -16 -4 -16 18 2 l24 20 -18 -21 c-9
-11 -14 -24 -10 -27 9 -9 23 -9 22 1 -3 20 2 32 12 26 8 -5 8 -9 -1 -14 -9 -5
-9 -9 -1 -14 6 -4 11 -2 11 3 0 6 5 11 11 11 5 0 8 -4 4 -9 -3 -6 5 -15 17
-21 21 -10 22 -10 5 3 -12 10 -14 17 -8 22 6 3 11 1 11 -6 0 -7 9 -5 22 7 17
14 19 15 10 2 -12 -15 -11 -17 7 -15 12 1 21 5 21 10 0 5 7 4 15 -3 8 -7 15
-10 15 -6 0 4 11 -1 24 -9 17 -11 27 -30 31 -58 4 -23 9 -51 11 -62 21 -112
27 -144 30 -170 2 -16 8 -43 13 -60 6 -16 12 -46 15 -65 2 -19 9 -57 14 -85 6
-27 13 -68 17 -90 3 -22 14 -77 24 -123 l18 -82 -41 -12 c-23 -6 -45 -13 -51
-14 -5 -1 -32 -9 -60 -17 -27 -8 -112 -32 -187 -53 l-138 -38 -8 -41 c-5 -23
-4 -43 1 -46 5 -4 3 -9 -4 -11 -19 -6 -48 22 -42 41 4 14 3 14 -6 1 -5 -8 -18
-15 -27 -15 -10 0 -19 -6 -21 -12 -3 -7 0 -13 7 -13 6 0 8 4 5 10 -3 6 -1 10
4 10 6 0 11 -6 11 -12 0 -10 2 -10 8 0 7 9 13 8 27 -8 10 -11 21 -17 25 -15 4
3 7 -31 6 -75 -1 -64 -4 -80 -16 -80 -9 0 -11 -3 -4 -8 13 -9 16 -112 3 -112
-5 0 -9 -8 -9 -17 0 -14 2 -15 9 -4 6 9 8 -9 7 -48 0 -33 -5 -61 -10 -61 -4 0
-5 8 -2 17 6 17 5 17 -7 1 -8 -10 -18 -14 -23 -10 -4 4 -3 -1 5 -10 7 -9 18
-16 24 -14 7 1 10 1 7 -1 -3 -2 -5 -23 -5 -48 1 -50 6 -55 99 -105 51 -26 186
-77 227 -85 9 -2 34 -8 55 -15 59 -17 316 -24 411 -12 149 21 355 102 498 198
88 58 224 196 298 301 31 45 57 84 57 88 0 4 16 39 34 79 37 76 55 127 80 222
47 186 34 467 -29 609 -13 29 -20 57 -17 61 4 4 1 3 -7 -1 -11 -6 -13 -4 -8 8
3 10 3 17 -1 17 -4 0 -8 9 -9 21 -3 32 -30 68 -51 66 -10 0 -19 -6 -19 -13 0
-7 7 -10 16 -7 13 4 13 2 -1 -10 -10 -8 -18 -17 -18 -20 0 -7 35 -1 53 9 6 4
9 4 5 -1 -4 -4 -3 -14 3 -22 9 -10 8 -13 -2 -13 -10 0 -10 -3 -1 -12 19 -19
14 -30 -10 -23 -21 5 -21 5 2 -9 14 -8 28 -12 32 -10 5 3 8 0 8 -5 0 -14 -6
-14 -30 -1 -16 8 -18 8 -14 -4 3 -9 9 -15 12 -14 22 2 30 -4 27 -22 -2 -12 0
-18 6 -15 5 4 7 11 4 16 -4 5 -2 9 3 9 5 0 12 -9 15 -19 4 -15 1 -18 -12 -13
-12 4 -14 3 -5 -9 9 -13 11 -30 4 -44 -1 -3 -4 -9 -5 -15 -1 -5 -4 -13 -5 -17
-1 -5 -2 -12 -1 -16 1 -5 -3 -6 -8 -2 -6 3 -10 -5 -9 -17 2 -44 -1 -50 -23
-43 -15 5 -19 4 -15 -4 4 -6 14 -11 23 -11 12 0 13 -3 4 -13 -6 -8 -8 -17 -4
-21 4 -4 -1 -4 -12 -1 -19 6 -19 6 -2 -8 14 -12 15 -16 4 -20 -8 -3 -13 -16
-12 -29 1 -12 -3 -32 -8 -43 -6 -11 -10 -30 -8 -43 1 -13 -4 -25 -14 -28 -12
-5 -13 -9 -4 -20 9 -11 8 -14 -1 -14 -7 0 -10 -6 -7 -13 3 -7 -1 -26 -8 -42
-7 -17 -14 -24 -14 -17 -1 7 -6 10 -12 7 -7 -5 -4 -14 7 -26 15 -17 15 -19 2
-14 -13 5 -15 0 -13 -29 3 -46 -9 -66 -24 -39 -5 11 -8 23 -5 25 3 3 -2 8 -11
12 -13 4 -14 2 -5 -14 6 -11 8 -20 4 -20 -4 0 0 -8 8 -17 16 -20 18 -40 3 -51
-5 -4 -17 -16 -25 -26 -14 -18 -13 -18 10 -12 17 5 20 4 12 -2 -8 -5 -13 -12
-13 -16 1 -3 0 -8 0 -11 -1 -3 -3 -14 -4 -25 -1 -11 -4 -22 -5 -25 -1 -3 -4
-9 -5 -15 -1 -5 -4 -13 -5 -17 -1 -5 -2 -11 -1 -15 1 -7 -30 -5 -49 2 -3 2 -8
2 -12 1 -5 0 -8 4 -8 10 0 5 -4 8 -8 5 -14 -9 -92 16 -85 27 3 6 1 7 -5 3 -14
-9 -63 4 -57 14 3 5 1 12 -5 15 -6 4 -9 3 -8 -2 3 -8 -5 -13 -23 -13 -6 0 -8
7 -5 16 5 13 4 14 -7 6 -10 -8 -24 -8 -53 0 -21 6 -43 11 -48 9 -5 -1 -6 6 -2
15 5 13 4 15 -7 5 -16 -12 -77 4 -77 21 0 5 -4 7 -9 3 -14 -8 -131 26 -125 36
3 5 -2 6 -10 3 -23 -9 -87 15 -80 29 5 9 4 9 -5 1 -9 -8 -27 -6 -69 8 -31 11
-64 21 -72 23 -69 15 -110 29 -110 36 0 4 -9 6 -20 4 -11 -2 -20 0 -20 6 0 5
4 9 10 9 5 0 9 4 7 8 -3 11 50 72 57 65 3 -4 6 0 6 9 0 19 44 60 55 51 4 -5 5
-3 2 3 -7 12 89 130 104 127 5 -2 8 3 6 10 -1 6 5 11 13 9 8 -2 12 0 8 4 -11
10 12 35 25 27 6 -4 7 -1 2 7 -4 7 -4 15 1 19 8 5 87 95 152 171 54 65 62 72
62 64 0 -5 6 2 13 16 8 14 19 24 25 23 7 -2 11 1 9 6 -1 5 10 24 26 43 21 28
32 34 52 30 14 -2 25 -9 25 -14 0 -6 7 -4 17 3 17 15 95 21 87 7 -4 -7 11 -12
19 -6 6 5 65 -37 61 -44 -3 -4 -1 -8 5 -8 5 0 9 9 8 20 -1 11 -6 19 -12 18
-19 -4 -76 33 -69 44 4 7 3 8 -4 4 -6 -4 -32 -7 -57 -8 -25 0 -45 -5 -45 -10
0 -5 -8 -4 -19 1 -10 6 -21 7 -25 4 -3 -3 -6 2 -6 11 0 12 -5 16 -14 13 -8 -3
-17 1 -20 9 -3 8 -1 14 4 14 6 0 10 5 10 12 0 6 -9 3 -20 -7 -11 -10 -20 -13
-20 -7 0 6 4 13 10 17 5 3 6 13 3 21 -5 14 -3 15 14 5 17 -8 24 -7 34 7 12 15
12 15 -1 5 -12 -9 -19 -8 -34 3 -11 8 -16 14 -11 14 4 0 -2 9 -15 20 -29 25
-29 25 -57 -2 -22 -21 -34 -13 -13 8 7 7 4 16 -10 29 -16 15 -22 16 -35 5 -13
-11 -19 -10 -33 4 -16 17 -16 18 5 12 12 -4 24 -2 28 3 4 7 -1 8 -12 4 -16 -6
-16 -5 -4 10 7 9 17 14 22 11 5 -3 9 0 9 5 0 17 -14 13 -40 -9 -13 -11 -27
-20 -33 -20 -5 0 1 -8 13 -18 20 -16 21 -21 10 -43 -16 -29 -31 -40 -44 -32
-5 4 -1 10 10 14 17 7 17 8 2 8 -10 1 -18 6 -18 11 0 6 -5 10 -11 10 -8 0 -7
-6 2 -16 12 -15 11 -16 -11 -10 -20 6 -18 3 10 -14 l34 -22 16 20 c8 12 23 33
33 47 15 21 21 23 39 14 15 -8 17 -14 9 -22 -17 -17 -13 -36 9 -34 10 1 17 3
15 5 -2 3 3 11 11 20 14 13 17 13 31 -1 18 -18 23 -56 10 -74 -10 -14 0 -36
14 -28 5 4 9 1 9 -5 0 -7 -16 -8 -47 -4 -43 6 -84 11 -121 13 -7 1 -10 6 -6
12 4 8 0 8 -14 0 -12 -6 -34 -9 -49 -7 -25 4 -115 14 -198 22 -16 1 -30 3 -30
4 0 1 -13 3 -30 5 -16 1 -30 3 -30 4 0 2 -25 4 -55 5 -111 6 -125 8 -112 13 6
2 12 9 12 15 0 6 -7 5 -16 -3 -22 -18 -53 -19 -94 -1 -19 9 -41 17 -49 18 -8
2 -17 8 -21 14 -6 9 -9 9 -12 0 -6 -19 -40 -21 -60 -3 -9 8 -22 12 -27 8 -6
-3 -14 0 -17 8 -2 7 -11 14 -19 14 -8 0 -12 -4 -10 -8 3 -4 -2 -9 -10 -13 -16
-6 -29 9 -20 24 3 5 0 7 -8 4 -9 -3 -21 4 -30 16 l-15 22 -12 -23 c-13 -22
-13 -22 -32 15 -15 29 -22 35 -33 26 -14 -12 -31 2 -21 18 5 9 -29 13 -38 5z
m148 -71 c3 -5 -1 -9 -9 -9 -8 0 -12 4 -9 9 3 4 7 8 9 8 2 0 6 -4 9 -8z m1636
-182 c0 -4 -7 -11 -16 -14 -13 -5 -14 -4 -6 7 7 8 8 18 4 22 -4 5 -1 5 6 1 6
-4 12 -11 12 -16z"/>
<path d="M1683 1890 c-6 -17 -8 -28 -3 -25 5 3 10 0 12 -6 2 -7 4 5 5 25 1 20
0 36 -1 36 -1 0 -7 -14 -13 -30z"/>
<path d="M382 1889 c-8 -12 -9 -18 -4 -15 17 10 40 -28 44 -71 1 -7 5 -13 10
-13 5 0 6 -4 3 -10 -3 -5 -1 -10 5 -10 7 0 10 7 6 15 -4 13 -2 13 14 5 12 -7
21 -7 25 0 3 5 12 10 18 10 8 0 8 -3 -2 -9 -9 -6 -10 -11 -2 -15 10 -6 15 6
12 27 0 4 3 7 9 7 6 0 10 -4 10 -9 0 -6 9 -8 19 -6 14 3 18 -1 14 -12 -4 -11
-8 -12 -13 -2 -5 7 -7 2 -7 -14 1 -14 6 -23 11 -19 5 3 6 -1 1 -8 -5 -8 -4
-11 3 -6 6 4 9 14 6 24 -5 14 -4 14 4 2 6 -8 9 -17 6 -21 -2 -4 5 -7 16 -6 11
1 20 5 20 9 0 4 3 7 8 7 24 -4 35 2 24 13 -8 8 -15 8 -27 -2 -22 -18 -55 11
-37 33 9 10 9 14 -1 15 -21 1 -57 11 -69 18 -6 4 -8 3 -5 -3 8 -13 -14 -23
-39 -18 -11 2 -22 4 -25 4 -3 1 -6 7 -7 14 -6 48 -20 87 -31 87 -3 0 -12 -9
-19 -21z m33 -9 c3 -6 -1 -7 -9 -4 -18 7 -21 14 -7 14 6 0 13 -4 16 -10z"/>
<path d="M1411 1894 c0 -11 3 -14 6 -6 3 7 2 16 -1 19 -3 4 -6 -2 -5 -13z"/>
<path d="M1605 1900 c-3 -6 1 -7 9 -4 18 7 21 14 7 14 -6 0 -13 -4 -16 -10z"/>
<path d="M1652 1896 c7 -8 15 -12 17 -11 5 6 -10 25 -20 25 -5 0 -4 -6 3 -14z"/>
<path d="M1545 1878 l-20 -21 23 12 c12 6 22 16 22 21 0 13 -2 12 -25 -12z"/>
<path d="M1234 1872 c-10 -15 -8 -18 7 -19 11 -1 24 8 30 20 9 20 9 20 -4 5
-17 -22 -28 -23 -21 -3 8 21 1 19 -12 -3z"/>
<path d="M1328 1878 c12 -6 22 -17 22 -25 0 -7 5 -13 11 -13 19 0 -16 45 -37
47 -15 2 -15 1 4 -9z"/>
<path d="M1436 1878 c3 -4 -1 -9 -8 -9 -7 -1 -19 -2 -27 -3 -8 0 -16 -8 -18
-16 -4 -13 -3 -13 6 0 9 13 13 12 26 -7 17 -24 35 -30 35 -12 0 5 -4 8 -9 5
-5 -3 -11 1 -14 9 -4 8 2 16 14 20 22 7 26 22 4 22 -8 0 -12 -4 -9 -9z"/>
<path d="M1616 1883 c-4 -5 -11 -8 -14 -8 -4 -1 -17 -4 -30 -9 -19 -6 -20 -9
-8 -22 20 -19 32 -18 15 2 -11 13 -11 15 2 13 7 -2 28 4 44 14 17 9 23 16 14
17 -9 0 -19 -3 -23 -7z"/>
<path d="M820 1866 c0 -2 8 -10 18 -17 15 -13 16 -12 3 4 -13 16 -21 21 -21
13z"/>
<path d="M1186 1848 c-15 -16 -20 -18 -27 -7 -5 9 -7 4 -6 -15 1 -16 8 -31 15
-32 7 -1 8 0 2 3 -5 2 -10 9 -10 14 0 6 5 7 12 3 6 -4 8 -3 4 4 -3 6 3 13 14
17 11 3 20 13 20 21 0 17 -1 17 -24 -8z"/>
<path d="M1304 1854 c3 -9 6 -18 6 -20 0 -2 7 -4 15 -4 21 0 19 -18 -2 -23
-16 -4 -16 -5 -1 -6 26 -2 33 20 12 36 -10 8 -18 19 -16 24 1 5 -3 9 -9 9 -6
0 -8 -7 -5 -16z"/>
<path d="M1628 1856 c-10 -7 -18 -17 -18 -21 0 -4 8 -1 17 6 14 12 16 12 11
-2 -3 -9 -2 -22 2 -30 7 -10 9 -9 8 6 0 11 3 28 7 38 8 20 -3 22 -27 3z"/>
<path d="M1266 1835 c-6 -17 2 -45 14 -45 12 0 20 28 14 45 -4 8 -10 15 -14
15 -4 0 -10 -7 -14 -15z m24 -15 c0 -5 -4 -10 -10 -10 -5 0 -10 5 -10 10 0 6
5 10 10 10 6 0 10 -4 10 -10z"/>
<path d="M1675 1841 c3 -5 -1 -11 -7 -14 -7 -2 -11 -7 -8 -10 3 -3 13 0 23 8
16 11 16 13 2 19 -9 3 -14 2 -10 -3z"/>
<path d="M382 1832 c3 -14 -14 -42 -22 -37 -19 12 -20 -17 -2 -40 11 -14 19
-37 17 -54 -2 -22 3 -32 21 -40 30 -13 31 1 2 23 -13 8 -16 14 -8 12 8 -1 11
-1 7 2 -4 2 0 10 10 18 17 13 17 14 1 8 -11 -4 -18 -1 -18 6 0 6 5 8 10 5 6
-3 10 -1 10 5 0 7 -7 9 -16 6 -10 -4 -13 -2 -8 6 4 6 3 8 -3 5 -13 -8 -13 24
0 41 5 6 15 12 21 12 6 0 4 -5 -4 -10 -10 -6 -11 -10 -2 -10 6 0 12 -5 12 -11
0 -8 -6 -7 -17 2 -14 12 -16 12 -11 -1 3 -8 12 -14 21 -14 9 1 15 -2 12 -6 -2
-4 2 -15 9 -25 15 -20 41 -11 32 11 -4 12 -2 12 14 4 16 -9 19 -8 14 7 -5 15
-4 15 4 3 6 -8 8 -18 6 -22 -10 -15 9 -8 23 10 13 15 13 15 3 -6 -8 -17 -8
-22 2 -20 6 2 13 -3 14 -9 1 -7 2 -16 3 -20 0 -4 8 2 17 13 8 10 13 14 9 7 -6
-12 24 -11 44 2 5 3 12 1 16 -5 3 -5 12 -10 18 -10 8 0 8 3 -1 9 -10 6 -10 10
3 21 13 11 15 10 10 -2 -6 -16 21 -45 32 -34 4 3 -1 12 -10 19 -13 9 -14 16
-6 27 9 13 10 12 5 -3 -3 -11 -2 -16 4 -12 6 3 10 0 10 -7 0 -10 2 -10 9 1 7
11 9 11 13 0 3 -10 6 -10 12 -1 4 7 2 12 -4 12 -6 0 -8 6 -4 13 5 9 4 9 -6 0
-10 -9 -17 -7 -32 10 -11 12 -17 17 -14 11 5 -11 -51 -41 -66 -36 -5 1 -8 -3
-8 -9 0 -6 -5 -7 -12 -2 -13 8 -18 9 -38 12 -6 0 -10 7 -9 14 1 6 1 21 0 32
-2 19 -2 19 -12 2 -7 -12 -15 -15 -22 -9 -14 10 -27 10 -45 -2 -21 -13 -36 8
-41 55 -1 4 -8 9 -16 13 -8 3 -14 2 -13 -2z m-18 -58 c3 -8 2 -12 -4 -9 -6 3
-10 10 -10 16 0 14 7 11 14 -7z m86 -29 c0 -12 -19 -12 -23 0 -4 9 -1 12 9 8
7 -3 14 -7 14 -8z"/>
<path d="M1217 1833 c-12 -11 -8 -20 18 -37 21 -14 24 -14 19 -1 -4 8 -12 15
-20 15 -20 0 -17 18 4 23 14 4 14 5 1 6 -9 0 -19 -2 -22 -6z"/>
<path d="M1107 1812 c-10 -10 -17 -25 -17 -33 1 -8 8 -1 16 14 8 15 19 25 24
22 6 -4 10 -1 10 4 0 17 -15 13 -33 -7z"/>
<path d="M1380 1811 c-7 -11 -17 -18 -22 -15 -4 3 -8 0 -8 -5 0 -6 4 -11 8
-11 5 0 18 -9 30 -20 12 -12 22 -16 22 -11 0 6 -9 15 -21 22 l-21 11 23 24
c12 13 18 24 13 24 -5 0 -16 -9 -24 -19z"/>
<path d="M1461 1814 c0 -11 3 -14 6 -6 3 7 2 16 -1 19 -3 4 -6 -2 -5 -13z"/>
<path d="M1075 1809 c-4 -6 -5 -12 -2 -15 2 -3 7 2 10 11 7 17 1 20 -8 4z"/>
<path d="M1194 1808 c3 -9 -4 -28 -15 -42 -23 -30 -19 -35 7 -8 20 20 35 22
47 7 6 -6 7 -5 5 3 -2 8 -7 12 -12 10 -4 -2 -14 8 -23 22 -8 14 -12 17 -9 8z"/>
<path d="M1519 1813 c-1 -5 -1 -11 0 -15 0 -5 -4 -8 -10 -8 -5 0 -7 -4 -4 -10
3 -5 1 -10 -4 -10 -6 0 -11 -5 -11 -11 0 -8 4 -8 14 0 12 10 18 6 32 -18 16
-27 19 -28 37 -16 11 7 26 11 33 8 8 -3 14 0 14 5 0 11 -20 10 -52 -3 -28 -11
-58 60 -33 77 6 5 6 8 -2 8 -7 0 -14 -3 -14 -7z"/>
<path d="M1676 1805 c-11 -8 -14 -15 -7 -15 7 0 9 -5 5 -12 -5 -7 -3 -8 5 -4
7 5 10 11 7 14 -3 3 -1 11 5 19 15 17 9 16 -15 -2z"/>
<path d="M1030 1804 c0 -8 52 -54 62 -54 6 0 -1 9 -16 21 -14 11 -24 24 -22
28 3 4 -1 8 -9 8 -8 0 -15 -2 -15 -3z"/>
<path d="M1136 1785 c10 -8 23 -15 28 -15 6 0 1 7 -10 15 -10 8 -23 15 -28 15
-6 0 -1 -7 10 -15z"/>
<path d="M1306 1782 c5 -4 12 -11 15 -15 3 -5 9 -2 12 5 3 9 -3 14 -15 15 -11
1 -16 -1 -12 -5z"/>
<path d="M1597 1783 c-13 -12 -7 -23 11 -22 10 0 12 3 4 6 -6 2 -10 9 -6 14 6
10 0 12 -9 2z"/>
<path d="M1036 1767 c3 -10 9 -15 12 -12 3 3 0 11 -7 18 -10 9 -11 8 -5 -6z"/>
<path d="M1110 1769 c0 -5 5 -7 10 -4 6 3 10 1 10 -4 0 -6 5 -11 11 -11 8 0 8
5 -1 15 -14 17 -30 20 -30 4z"/>
<path d="M1247 1757 c-24 -20 -25 -23 -8 -23 11 0 18 3 15 7 -2 4 3 12 11 19
11 9 21 6 50 -16 19 -15 38 -24 42 -20 3 3 2 6 -3 6 -5 0 -22 11 -38 25 -36
31 -36 31 -69 2z"/>
<path d="M1340 1761 c0 -5 7 -11 15 -15 8 -3 15 -1 15 3 0 5 -7 11 -15 15 -8
3 -15 1 -15 -3z"/>
<path d="M1558 1753 c7 -3 16 -2 19 1 4 3 -2 6 -13 5 -11 0 -14 -3 -6 -6z"/>
<path d="M733 1737 c3 -9 -1 -21 -9 -27 -8 -7 -14 -9 -14 -4 0 4 -6 -1 -14
-11 -11 -15 -17 -17 -28 -7 -8 6 -18 9 -21 5 -4 -3 -13 -1 -20 5 -8 7 -16 9
-19 7 -3 -3 -16 -8 -28 -10 -31 -6 -36 -13 -20 -28 10 -10 11 -9 5 1 -6 11 -3
12 13 3 12 -7 23 -7 26 -2 4 5 1 12 -4 14 -6 3 -5 4 2 3 7 -2 12 -12 10 -22
-2 -18 -2 -18 12 -1 9 12 16 14 21 8 3 -6 1 -11 -6 -11 -7 0 -10 -3 -7 -6 4
-3 20 2 37 10 26 14 30 14 25 1 -3 -8 -9 -14 -12 -13 -20 2 -32 -3 -27 -12 4
-6 15 -5 30 2 13 6 22 14 20 18 -2 4 3 16 11 26 9 10 12 13 8 5 -5 -10 -3 -12
6 -6 9 5 11 4 6 -3 -4 -7 -5 -12 -2 -12 3 0 10 9 16 20 9 17 8 19 -7 14 -15
-5 -15 -4 -3 4 17 13 33 5 24 -11 -5 -8 -3 -8 6 0 11 10 18 9 37 -9 13 -12 23
-16 23 -10 0 6 -9 17 -21 25 -13 9 -16 17 -10 22 6 3 11 1 11 -6 0 -7 6 -5 13
6 14 19 43 12 31 -7 -5 -7 -1 -9 9 -5 11 4 14 2 11 -8 -3 -8 -9 -13 -12 -12
-4 1 -8 -2 -9 -6 -1 -5 -10 -15 -20 -23 -16 -14 -16 -14 7 -4 22 10 23 10 8
-3 -19 -15 -25 -33 -9 -22 5 3 12 1 15 -4 13 -20 -28 -3 -46 20 -17 22 -18 22
-16 4 2 -12 -2 -19 -10 -17 -10 2 -10 -2 -2 -18 6 -11 16 -20 23 -20 7 0 6 4
-3 10 -13 8 -13 11 -1 22 9 8 11 9 7 1 -3 -6 -1 -15 5 -19 9 -5 7 -11 -6 -20
-10 -8 -16 -17 -12 -20 4 -4 12 -2 20 4 10 8 13 6 14 -9 1 -10 -3 -19 -8 -19
-6 0 -7 4 -4 10 4 6 -1 7 -11 3 -11 -4 -13 -8 -6 -11 15 -5 16 -32 1 -32 -5 0
-8 4 -4 9 3 5 1 12 -4 16 -6 3 -8 -4 -6 -15 2 -13 0 -18 -7 -14 -7 4 -7 0 1
-13 6 -11 7 -24 3 -28 -4 -4 3 -2 16 4 14 8 21 18 18 27 -3 8 -1 14 4 14 6 0
9 3 8 8 -1 4 3 17 10 29 8 14 9 24 2 28 -5 3 -10 11 -10 16 0 6 4 8 9 4 11 -6
24 11 27 35 4 27 13 60 19 70 11 18 -19 36 -61 36 -28 -1 -40 -5 -37 -12 2 -7
0 -15 -6 -19 -6 -3 -11 -2 -11 2 0 5 -10 14 -21 22 -19 11 -21 11 -16 -2z
m-68 -57 c3 -5 1 -10 -4 -10 -6 0 -11 5 -11 10 0 6 2 10 4 10 3 0 8 -4 11 -10z
m145 -180 c0 -5 -4 -10 -10 -10 -5 0 -10 5 -10 10 0 6 5 10 10 10 6 0 10 -4
10 -10z"/>
<path d="M1270 1740 c0 -5 5 -10 10 -10 6 0 10 5 10 10 0 6 -4 10 -10 10 -5 0
-10 -4 -10 -10z"/>
<path d="M1376 1735 c-3 -8 -1 -15 4 -15 6 0 10 7 10 15 0 8 -2 15 -4 15 -2 0
-6 -7 -10 -15z"/>
<path d="M1424 1737 c3 -10 6 -21 6 -23 0 -2 11 3 24 11 23 15 25 15 36 -5 6
-12 14 -19 17 -16 4 3 -2 15 -12 26 -14 15 -22 17 -38 9 -15 -8 -22 -8 -29 2
-7 11 -8 9 -4 -4z"/>
<path d="M1510 1744 c0 -6 7 -19 16 -30 14 -18 14 -18 3 6 -14 31 -19 36 -19
24z"/>
<path d="M460 1725 c-7 -8 -20 -14 -29 -13 -17 3 -22 -20 -8 -39 14 -19 -1
-35 -22 -24 -15 9 -18 6 -15 -17 1 -15 3 -29 4 -32 1 -3 2 -9 0 -15 -1 -5 4
-4 11 2 15 15 41 -1 33 -21 -2 -6 5 -12 17 -13 14 -1 18 2 11 10 -12 15 -12
47 0 47 5 0 6 5 2 11 -4 8 -9 7 -15 -2 -4 -7 -5 -17 -3 -21 3 -4 1 -8 -5 -8
-5 0 -9 9 -8 20 1 11 6 20 12 20 5 0 3 5 -5 10 -12 8 -12 10 -1 10 11 0 11 3
1 15 -9 10 -9 15 -1 16 11 2 25 5 39 9 4 1 11 2 15 1 5 -1 5 4 1 10 -4 8 -3 9
5 5 9 -6 9 -11 0 -22 -13 -16 2 -19 17 -4 7 7 11 7 11 -2 0 -7 2 -20 4 -28 3
-9 -3 -15 -13 -14 -9 1 -14 -4 -12 -11 3 -6 11 -12 19 -12 16 0 28 24 19 40
-3 7 2 3 10 -8 9 -11 14 -26 11 -35 -3 -9 2 -7 10 5 19 24 53 29 51 7 0 -8 5
-16 12 -18 7 -1 8 0 2 3 -5 2 -7 9 -4 15 4 6 10 5 15 -3 6 -10 9 -10 9 -2 0
17 -19 26 -80 38 -28 5 -50 17 -45 25 3 5 1 11 -5 15 -6 4 -7 11 -4 17 5 7 2
8 -5 4 -7 -5 -20 -1 -30 8 -16 15 -19 15 -31 1z m19 -21 c-6 -8 -14 -12 -17
-10 -2 3 -12 1 -22 -4 -12 -6 -17 -5 -17 5 0 7 6 11 12 9 7 -3 18 2 25 10 7 9
16 13 22 10 5 -3 4 -12 -3 -20z m111 -58 c0 -3 -4 -8 -10 -11 -5 -3 -10 -1
-10 4 0 6 5 11 10 11 6 0 10 -2 10 -4z m-171 -28 c-11 -21 -15 -22 -25 -6 -4
7 -3 8 4 4 7 -4 12 -3 12 3 0 5 -6 11 -12 14 -7 3 -3 4 9 4 17 -1 20 -4 12
-19z"/>
<path d="M830 1720 c0 -5 0 -12 0 -15 0 -12 14 -4 16 10 1 8 -2 15 -7 15 -5 0
-9 -4 -9 -10z"/>
<path d="M1580 1710 c-8 -5 -10 -10 -5 -10 6 0 17 5 25 10 8 5 11 10 5 10 -5
0 -17 -5 -25 -10z"/>
<path d="M751 1669 c-17 -17 -28 -23 -25 -15 3 9 1 16 -5 16 -6 0 -10 -3 -10
-7 3 -20 -2 -34 -10 -28 -6 3 -22 -7 -36 -22 l-26 -28 -20 24 -20 24 -15 -21
c-20 -29 -37 -28 -28 1 8 26 2 22 -16 -12 -10 -19 -9 -22 1 -16 7 5 10 4 6 -2
-3 -5 0 -10 8 -10 8 0 15 5 15 11 0 5 7 1 15 -10 15 -19 15 -19 30 0 14 18 20
12 17 -16 -1 -3 5 -8 12 -11 9 -4 12 2 10 19 -1 13 2 24 7 24 5 0 9 -7 9 -15
0 -8 5 -15 10 -15 7 0 7 6 1 18 -6 12 -5 23 4 35 13 17 14 17 20 -3 5 -17 9
-19 21 -9 8 7 13 18 10 25 -3 7 0 16 6 20 7 5 8 2 3 -5 -6 -10 -3 -11 12 -2
11 6 24 7 28 3 5 -4 5 -1 1 6 -12 20 4 35 22 20 12 -9 11 -6 -2 10 -11 12 -20
22 -22 22 -1 0 -16 -14 -33 -31z m14 -9 c3 -5 1 -10 -4 -10 -6 0 -11 5 -11 10
0 6 2 10 4 10 3 0 8 -4 11 -10z m-35 -34 c0 -3 -4 -8 -10 -11 -5 -3 -10 -1
-10 4 0 6 5 11 10 11 6 0 10 -2 10 -4z m-117 -22 c3 -3 3 -12 0 -20 -4 -11 -9
-12 -19 -3 -8 6 -11 15 -8 20 6 10 18 12 27 3z"/>
<path d="M475 1680 c-4 -6 -11 -8 -16 -5 -13 8 -5 -33 9 -47 8 -8 8 -17 1 -30
-7 -13 -7 -23 0 -32 8 -10 7 -16 -3 -25 -11 -9 -15 -9 -19 1 -4 10 -6 9 -6 -1
-1 -13 -3 -13 -13 0 -7 8 -12 12 -11 10 2 -2 -2 -10 -9 -18 -8 -10 -8 -12 4
-8 12 5 15 0 13 -24 -1 -17 1 -29 5 -26 11 7 38 -37 33 -53 -3 -6 -8 -10 -12
-7 -4 2 -7 -8 -6 -23 1 -16 7 -26 15 -24 8 2 10 -3 6 -13 -3 -9 1 -18 10 -22
13 -5 13 -7 2 -14 -11 -7 -11 -9 1 -9 11 0 11 -3 0 -17 -8 -9 -9 -14 -3 -10 7
4 14 0 18 -8 3 -8 1 -14 -3 -12 -5 1 -9 -2 -9 -8 -1 -5 5 -9 13 -7 7 1 16 -2
20 -8 3 -5 1 -10 -5 -10 -6 0 -8 -4 -5 -10 3 -5 0 -10 -7 -10 -8 0 -6 -5 5
-11 13 -8 15 -14 7 -24 -11 -13 -4 -45 11 -45 5 0 9 6 9 14 0 8 5 18 11 22 8
4 9 -1 5 -17 -6 -20 -5 -21 4 -6 12 19 4 41 -11 32 -8 -6 -13 9 -10 28 1 5 -4
5 -10 2 -8 -6 -8 -2 0 14 7 11 9 21 6 21 -3 0 -1 10 5 23 11 21 10 21 -4 3 -9
-11 -16 -15 -16 -10 0 6 6 16 13 23 10 11 9 13 -5 8 -10 -3 -20 -1 -24 5 -4 6
-3 8 3 5 6 -4 13 0 16 8 4 10 1 12 -11 9 -9 -3 -6 2 8 11 20 12 21 15 5 11
-11 -3 -27 -1 -35 5 -12 8 -11 9 6 5 15 -5 21 -2 21 9 0 9 -6 14 -13 11 -16
-6 -39 20 -25 28 5 4 12 2 16 -4 4 -6 11 -8 16 -5 5 4 9 1 9 -6 0 -7 3 -10 6
-6 7 6 -10 39 -19 38 -19 -3 -27 0 -27 10 0 5 4 8 9 5 15 -10 21 22 6 34 -10
8 -15 8 -19 -2 -3 -7 -3 -3 -1 9 3 12 1 24 -4 28 -7 4 -8 -1 -4 -12 6 -15 5
-16 -9 -3 -11 11 -12 17 -4 22 8 6 7 8 -2 8 -7 0 -10 5 -6 11 3 6 9 7 13 3 11
-15 31 -15 37 1 3 8 10 12 15 9 5 -3 9 1 9 8 0 9 3 9 10 -2 5 -8 10 -10 10 -5
0 6 9 11 21 12 12 1 19 -3 16 -10 -2 -7 -12 -11 -21 -9 -15 3 -15 0 -4 -17 12
-20 29 -29 27 -13 -3 19 2 33 11 27 5 -3 8 0 7 7 -2 7 -2 10 0 6 3 -5 9 -8 15
-8 6 0 3 9 -6 19 -10 10 -25 18 -34 16 -9 -1 -22 2 -29 7 -14 11 -36 1 -28
-13 4 -5 2 -9 -4 -9 -17 0 -21 18 -5 24 8 3 12 10 9 16 -3 6 1 7 9 4 9 -3 16
-2 16 4 0 6 -11 9 -25 8 -16 -2 -22 1 -18 8 10 16 11 46 1 52 -4 3 -6 10 -3
15 4 5 4 9 1 9 -3 0 -8 -5 -11 -10z m10 -40 c1 -10 -2 -17 -6 -14 -4 2 -7 13
-6 24 2 23 10 17 12 -10z m5 -54 c0 -3 -4 -8 -10 -11 -5 -3 -10 -1 -10 4 0 6
5 11 10 11 6 0 10 -2 10 -4z m40 -26 c0 -5 -2 -10 -4 -10 -3 0 -8 5 -11 10 -3
6 -1 10 4 10 6 0 11 -4 11 -10z m0 -394 c0 -3 -4 -8 -10 -11 -5 -3 -10 -1 -10
4 0 6 5 11 10 11 6 0 10 -2 10 -4z"/>
<path d="M1981 1683 c-1 -7 -2 -16 -3 -20 -2 -3 5 -7 15 -9 10 -1 14 2 11 8
-4 7 -2 8 4 4 6 -4 9 -13 6 -21 -7 -17 21 -14 39 4 9 10 8 11 -5 6 -10 -4 -18
-3 -18 2 0 13 32 13 49 -1 11 -8 13 -8 8 0 -4 7 2 11 15 10 12 0 23 5 25 12 5
13 -23 12 -44 -1 -7 -5 -13 -4 -13 2 0 7 -8 7 -26 1 -33 -13 -37 -13 -28 3 6
9 4 9 -8 -1 -13 -10 -17 -10 -21 0 -4 10 -6 10 -6 1z"/>
<path d="M2137 1677 c-3 -8 -4 -23 -2 -33 2 -11 4 -23 4 -27 1 -5 6 -5 13 -1
7 4 8 3 4 -5 -4 -6 -12 -9 -17 -6 -5 4 -9 2 -9 -4 0 -19 19 -21 32 -4 16 23
39 28 32 8 -4 -8 -11 -12 -17 -8 -5 3 -7 1 -4 -4 4 -6 0 -16 -8 -23 -8 -7 -15
-20 -15 -28 0 -13 2 -13 13 3 11 14 16 15 22 5 5 -9 4 -11 -3 -6 -7 4 -12 2
-12 -3 0 -6 5 -11 11 -11 5 0 7 -5 3 -11 -5 -8 -9 -8 -14 1 -5 9 -9 9 -14 1
-6 -10 6 -15 27 -12 7 1 11 -15 8 -32 -1 -5 3 -6 9 -2 7 4 6 13 -1 28 l-12 22
21 -20 c17 -17 18 -22 6 -31 -7 -6 -11 -14 -7 -17 3 -4 1 -7 -5 -7 -32 0 -62
-16 -62 -33 0 -7 4 -6 10 3 5 8 10 12 10 7 0 -11 60 22 60 34 0 5 6 4 14 -3
10 -10 11 -15 2 -21 -7 -6 -6 -7 4 -4 19 5 20 27 4 47 -12 15 -14 20 -14 40 0
6 -3 9 -7 9 -19 -3 -30 2 -30 14 0 6 -2 19 -4 27 -3 10 3 14 15 13 12 -1 15 2
8 9 -6 6 -8 16 -5 24 3 9 -3 13 -23 11 -25 -2 -29 2 -31 27 -2 34 -8 42 -16
23z"/>
<path d="M1863 1667 c1 -5 7 -8 12 -8 6 0 14 -7 18 -15 5 -8 13 -12 18 -8 7 4
6 10 0 18 -8 9 -7 13 2 13 8 0 14 -6 15 -14 1 -7 3 -20 4 -28 1 -8 5 -15 10
-15 4 0 3 -9 -4 -19 -9 -15 -15 -17 -29 -8 -10 6 -17 16 -16 21 1 6 -4 10 -10
9 -7 -2 -13 2 -13 9 0 6 -3 8 -6 5 -4 -3 -16 -1 -28 5 -30 17 -74 18 -87 1 -8
-9 -16 -10 -23 -4 -7 6 -17 6 -26 1 -10 -7 -11 -10 -2 -10 6 0 12 -7 12 -15 0
-8 5 -15 11 -15 5 0 8 -4 5 -9 -8 -12 30 -58 40 -48 5 4 2 12 -6 17 -8 5 -15
13 -15 17 -1 4 -7 19 -14 33 -13 22 -13 24 1 13 8 -7 18 -10 21 -6 4 3 13 0
22 -7 20 -16 19 -1 -1 21 -14 16 -14 17 0 15 8 -1 18 -5 22 -8 3 -4 13 -4 22
-1 15 5 14 4 -1 -8 -16 -13 -15 -14 9 -16 20 -1 24 1 13 9 -12 8 -12 9 1 5 8
-2 14 -10 13 -16 -4 -14 9 -14 25 -1 6 6 10 7 7 4 -2 -4 0 -15 6 -25 7 -15 6
-21 -6 -25 -21 -8 -19 -19 5 -21 11 -1 19 1 19 5 -3 19 3 29 17 29 14 0 14 -2
-2 -14 -13 -10 -14 -13 -3 -13 8 0 10 -3 4 -8 -13 -9 -18 -42 -7 -42 5 0 9 7
10 15 1 8 3 22 4 30 1 14 11 19 31 16 13 -2 8 11 -10 26 -16 13 -15 13 7 3 21
-9 23 -9 10 2 -8 7 -17 20 -18 28 -11 44 -10 49 4 43 9 -3 13 -13 9 -27 -5
-19 -5 -19 5 -3 8 13 9 22 1 31 -6 7 -9 15 -6 18 2 2 -20 4 -50 4 -30 -1 -54
-5 -52 -9z"/>
<path d="M510 1655 c0 -8 4 -15 10 -15 5 0 7 7 4 15 -4 8 -8 15 -10 15 -2 0
-4 -7 -4 -15z"/>
<path d="M2096 1653 c-10 -10 -7 -23 5 -20 6 1 14 -5 16 -13 4 -12 3 -12 -5
-1 -7 9 -12 10 -16 2 -4 -6 -1 -11 6 -11 9 0 9 -3 -2 -10 -11 -7 -11 -10 -2
-10 7 0 10 -4 7 -10 -4 -6 1 -7 12 -4 11 3 14 2 8 -3 -13 -10 -13 -34 0 -31 6
1 9 9 7 16 -2 8 1 11 6 8 5 -3 16 2 23 12 12 15 12 15 -1 5 -12 -9 -19 -8 -33
2 -11 8 -14 16 -8 19 13 9 10 44 -5 50 -7 3 -15 2 -18 -1z"/>
<path d="M1982 1624 c-9 -19 -10 -30 -1 -40 8 -10 7 -18 -4 -34 -8 -12 -16
-17 -18 -11 -2 6 -9 -1 -16 -14 -6 -14 -7 -23 -2 -19 5 3 9 1 9 -4 0 -13 -29
-24 -42 -16 -5 3 -7 13 -4 21 3 8 1 11 -4 8 -6 -3 -10 -1 -10 6 0 7 -3 10 -6
7 -3 -4 -1 -16 5 -27 9 -17 9 -20 -3 -15 -8 3 -17 1 -20 -5 -4 -5 2 -10 11
-10 39 -1 53 -5 53 -13 0 -5 5 -6 10 -3 6 4 8 10 5 15 -3 5 0 12 6 15 5 4 8
13 5 20 -3 9 2 12 15 10 16 -3 19 0 14 18 -5 18 -4 19 5 7 10 -13 11 -13 7 2
-7 22 3 30 20 17 8 -7 13 -8 13 -1 0 11 -20 29 -35 32 -17 3 -16 7 2 21 11 9
14 10 9 2 -5 -9 -2 -11 8 -7 9 3 16 10 16 16 0 5 -4 7 -9 3 -6 -3 -14 2 -19
10 -7 13 -10 12 -20 -11z"/>
<path d="M2041 1620 c-10 -16 -22 -27 -27 -22 -5 4 -1 -3 10 -15 20 -24 13
-51 -9 -33 -9 8 -12 4 -10 -15 3 -23 -1 -27 -22 -24 -6 1 -27 -30 -28 -41 -1
-19 -18 -29 -34 -20 -10 5 -21 6 -25 3 -3 -3 -6 -1 -6 6 0 7 -5 9 -11 5 -8 -4
-7 -9 2 -15 10 -6 10 -9 2 -9 -21 0 -35 36 -18 50 11 9 12 17 5 30 -11 21 -3
53 11 44 5 -3 6 3 2 12 -4 10 -8 13 -10 7 -3 -8 -12 -7 -30 2 -18 10 -32 11
-44 4 -11 -6 -20 -5 -24 1 -3 5 -11 10 -16 10 -14 0 -7 -33 10 -46 19 -15 4
-36 -21 -28 -18 5 -19 4 -7 -18 7 -12 12 -29 11 -35 -2 -7 2 -13 9 -13 8 0 7
-5 -2 -17 -13 -16 -12 -17 3 -4 10 7 15 17 12 22 -3 5 0 9 5 9 16 0 13 -21 -6
-44 -15 -17 -15 -18 -2 -8 15 11 17 10 18 -10 1 -43 4 -58 13 -58 5 0 7 -4 4
-8 -2 -4 9 -8 25 -7 16 0 27 4 25 10 -2 5 -12 9 -24 8 -11 -1 -23 4 -26 13 -4
10 -1 13 7 9 6 -4 3 1 -7 9 -11 9 -14 16 -8 16 10 0 10 5 1 21 -6 13 -7 19 -1
15 6 -3 9 2 7 11 -1 10 2 24 8 31 7 9 5 12 -9 9 -11 -1 -26 -7 -34 -11 -8 -5
-12 -6 -8 -1 4 4 3 14 -3 22 -9 9 -8 13 0 13 6 0 11 -6 11 -12 0 -9 4 -8 10 2
7 11 10 11 10 2 0 -7 5 -10 11 -6 6 3 7 9 2 13 -17 12 -9 46 10 43 9 -2 16 2
15 9 -2 6 3 13 10 15 7 1 8 0 2 -3 -5 -2 -7 -9 -4 -15 4 -7 9 -7 13 1 4 6 7
-7 7 -29 0 -22 -3 -35 -6 -29 -5 7 -9 5 -13 -5 -3 -8 -2 -18 3 -21 6 -4 10
-12 10 -18 0 -8 -3 -8 -9 2 -6 9 -11 10 -15 2 -7 -11 -4 -13 24 -15 8 -1 15
-10 15 -21 0 -11 7 -20 15 -20 8 0 14 8 14 17 -1 14 2 16 18 7 16 -9 19 -8 13
3 -4 7 2 2 14 -12 16 -21 22 -23 33 -12 11 11 9 16 -7 29 -15 12 -16 14 -3 10
13 -4 15 -2 11 10 -5 12 -2 15 10 10 21 -8 49 2 41 15 -4 5 -10 5 -18 -1 -7
-6 -17 -6 -26 -1 -13 9 -13 10 0 11 8 1 18 1 23 0 4 0 7 5 7 12 0 9 2 9 8 0 5
-8 13 -9 22 -3 13 8 12 10 -2 10 -9 0 -20 5 -24 12 -5 8 -2 9 9 5 9 -3 19 -2
22 4 4 5 11 7 16 4 5 -4 9 -1 9 4 0 6 -5 11 -11 11 -6 0 -8 9 -4 23 4 15 3 18
-3 8 -7 -9 -12 -10 -16 -2 -4 6 -2 12 3 12 6 1 16 3 21 4 6 1 14 3 19 4 5 0 8
9 6 19 -2 9 -4 20 -4 25 -2 17 -23 5 -40 -23z m34 11 c3 -6 -4 -15 -15 -21
-20 -11 -21 -10 -10 9 12 23 16 25 25 12z m-273 -50 c23 13 23 8 -2 -14 -19
-16 -20 -15 -31 6 -9 18 -9 20 1 10 9 -8 19 -9 32 -2z m88 -155 c0 -3 -4 -8
-10 -11 -5 -3 -10 -1 -10 4 0 6 5 11 10 11 6 0 10 -2 10 -4z m80 -6 c0 -5 -5
-10 -11 -10 -5 0 -7 5 -4 10 3 6 8 10 11 10 2 0 4 -4 4 -10z"/>
<path d="M737 1605 c-17 -23 -55 -25 -40 -2 3 6 1 7 -5 3 -9 -5 -9 -13 -2 -26
11 -20 -2 -36 -20 -25 -6 3 -7 -1 -4 -10 5 -11 10 -13 19 -5 9 8 15 8 20 0 3
-5 11 -10 16 -10 5 0 2 12 -8 26 -17 27 -17 27 5 15 12 -6 22 -8 22 -4 0 4 5
1 11 -7 8 -12 9 -10 4 8 -3 12 -2 22 3 22 11 0 9 -40 -3 -60 -5 -8 -3 -11 6
-8 8 3 15 10 15 16 1 7 2 13 4 15 9 10 4 50 -7 54 -7 3 -10 9 -7 14 12 20 -12
6 -29 -16z m11 -15 c-7 -10 -14 -17 -17 -15 -4 4 18 35 25 35 2 0 -1 -9 -8
-20z"/>
<path d="M1670 1606 c0 -2 7 -7 16 -10 8 -3 12 -2 9 4 -6 10 -25 14 -25 6z"/>
<path d="M2067 1576 c-3 -7 -1 -18 5 -24 13 -13 1 -35 -14 -26 -8 5 -9 1 -5
-10 4 -10 1 -19 -8 -22 -8 -4 -13 -10 -10 -15 7 -10 -32 -32 -45 -24 -5 3 -7
-5 -4 -19 6 -35 -19 -52 -48 -32 -20 14 -23 14 -40 -1 -15 -13 -20 -14 -33 -3
-9 7 -14 19 -11 27 3 8 1 11 -5 8 -5 -4 -16 -2 -23 4 -10 9 -13 4 -11 -21 2
-18 4 -35 5 -38 1 -3 2 -8 1 -12 0 -4 5 -5 13 -2 16 6 40 -21 31 -36 -3 -6
-10 -8 -15 -5 -4 3 -19 1 -32 -5 -19 -8 -17 -9 15 -5 21 2 35 0 32 -6 -3 -5 1
-6 10 -2 13 5 14 7 3 14 -11 7 -11 9 1 9 10 0 11 3 3 13 -8 10 -6 16 9 25 11
7 17 17 13 23 -4 8 -1 8 13 0 11 -6 23 -7 27 -4 3 3 6 2 6 -3 0 -5 9 -10 21
-11 15 -1 19 2 15 15 -5 15 -4 14 8 -1 9 -12 16 -14 21 -8 3 6 -1 14 -10 17
-13 6 -14 8 -3 15 11 8 11 10 0 18 -11 7 -11 9 2 14 9 4 15 3 15 -1 -1 -4 -1
-14 0 -22 1 -13 3 -13 10 -1 5 8 7 19 5 26 -3 6 2 12 10 12 11 0 13 -5 5 -18
-6 -11 -5 -20 1 -24 5 -3 10 -3 11 2 0 4 2 19 5 32 3 17 0 22 -10 18 -10 -4
-13 -1 -9 9 4 11 9 12 18 4 11 -9 13 -5 10 16 -2 25 -1 26 10 10 8 -11 15 -13
20 -7 3 6 1 11 -5 11 -6 0 -8 5 -4 11 4 8 9 7 15 -2 4 -7 5 -17 3 -21 -3 -4
-1 -8 5 -8 5 0 11 3 14 8 2 4 2 2 1 -5 -2 -7 5 -10 17 -8 16 3 18 1 9 -16 -13
-24 -22 -25 -13 -1 6 15 4 15 -16 -2 -14 -13 -18 -22 -10 -27 8 -5 7 -8 -2
-13 -11 -5 -12 -7 -1 -12 10 -5 9 -9 -5 -19 -14 -10 -15 -16 -6 -25 13 -15 36
-3 30 14 -3 7 1 13 8 13 7 0 12 -5 11 -11 -2 -6 -1 -8 1 -3 8 13 19 7 19 -12
0 -10 -7 -18 -15 -17 -7 1 -16 -6 -19 -14 -4 -13 -3 -13 10 -2 10 8 19 9 22 4
3 -6 -1 -15 -9 -22 -8 -7 -15 -17 -15 -22 0 -6 7 -5 15 2 9 7 18 10 22 6 3 -3
1 -6 -5 -6 -6 0 -9 -9 -7 -20 2 -11 0 -18 -5 -15 -5 3 -11 1 -14 -4 -3 -5 3
-11 14 -14 21 -5 37 8 21 18 -14 8 -1 36 13 28 6 -3 2 3 -8 15 -19 21 -17 24
14 26 9 1 15 13 15 34 0 18 7 37 14 41 10 6 9 10 -4 15 -9 3 -13 11 -9 17 4 8
3 9 -5 5 -6 -4 -9 -18 -7 -31 3 -18 1 -22 -11 -18 -11 4 -11 8 -3 13 9 5 9 9
1 14 -6 4 -11 2 -11 -5 0 -7 -3 -9 -6 -6 -4 3 -15 2 -25 -3 -30 -16 -34 10 -6
36 17 16 27 19 30 11 3 -7 4 -2 4 11 -1 20 -9 26 -29 23 -8 -1 -12 15 -9 33 1
5 -5 6 -13 3 -9 -4 -18 -2 -21 4 -4 5 -11 7 -16 4 -5 -4 -9 -1 -9 4 0 6 5 11
10 11 6 0 5 8 -2 20 -15 23 -24 25 -31 6z m-175 -191 c7 3 5 0 -6 -9 -16 -13
-21 -13 -39 -1 -11 8 -21 24 -22 35 -2 19 0 19 26 -6 16 -15 33 -23 41 -19z
m313 -3 c-2 -3 0 -12 5 -21 6 -13 4 -17 -10 -17 -13 0 -17 6 -14 20 2 11 -2
26 -9 34 -10 13 -9 14 10 1 12 -7 20 -15 18 -17z m-80 -2 c3 -5 1 -10 -4 -10
-6 0 -11 5 -11 10 0 6 2 10 4 10 3 0 8 -4 11 -10z"/>
<path d="M1831 1397 c2 -1 13 -9 24 -17 19 -14 19 -14 6 3 -7 9 -18 17 -24 17
-6 0 -8 -1 -6 -3z"/>
<path d="M615 1560 c-3 -5 -4 -14 0 -20 3 -5 -7 -16 -22 -24 -15 -8 -24 -15
-20 -16 5 0 17 5 27 10 16 8 18 7 14 -4 -3 -8 0 -17 6 -21 6 -4 11 -1 9 6 -3
25 1 39 10 39 6 0 8 -9 6 -21 -3 -13 0 -19 8 -16 7 3 11 10 9 16 -1 7 3 9 9 5
6 -3 16 0 21 7 8 11 9 10 4 -3 -3 -10 0 -20 6 -24 7 -4 8 -3 4 5 -9 14 16 11
26 -4 5 -6 8 -5 8 3 0 10 3 10 14 0 11 -11 11 -15 -3 -25 -9 -6 -13 -15 -8
-19 4 -4 7 -2 7 5 0 7 5 9 11 5 8 -4 7 -9 -2 -16 -10 -6 -6 -7 11 -3 31 9 53
28 26 23 -12 -2 -20 4 -22 16 -1 11 -10 23 -18 28 -8 5 -13 15 -10 22 3 7 -2
16 -12 20 -13 5 -15 4 -5 -7 9 -11 8 -17 -3 -26 -11 -9 -15 -8 -20 5 -5 13
-10 14 -18 6 -13 -13 -72 13 -63 28 4 6 4 10 1 10 -3 0 -8 -4 -11 -10z"/>
<path d="M1634 1540 c0 -13 4 -16 10 -10 7 7 7 13 0 20 -6 6 -10 3 -10 -10z"/>
<path d="M1800 1544 c1 -5 6 -19 13 -31 12 -21 13 -22 24 -4 7 11 8 23 2 32
-7 12 -9 12 -9 0 0 -11 -3 -11 -15 -1 -8 7 -15 9 -15 4z"/>
<path d="M510 1521 c0 -7 -4 -10 -9 -6 -5 3 -12 1 -16 -5 -4 -6 -12 -7 -18 -3
-7 4 1 -10 16 -30 24 -31 27 -41 16 -53 -7 -8 -8 -14 -3 -13 30 5 43 -21 22
-47 -5 -8 -3 -14 7 -18 13 -4 14 -10 5 -26 -8 -16 -8 -22 4 -26 14 -5 19 -44
5 -44 -14 0 -3 -56 15 -71 15 -13 17 -19 7 -37 -6 -12 -15 -21 -19 -21 -26 4
-34 -1 -22 -16 7 -8 9 -15 5 -15 -4 0 -2 -7 5 -15 6 -8 8 -20 4 -26 -5 -8 -3
-9 6 -4 10 6 12 4 7 -9 -4 -10 -1 -19 8 -23 13 -5 13 -7 -2 -19 -20 -15 -19
-16 18 -18 19 -1 26 3 24 13 -1 9 8 24 19 34 12 10 15 16 8 12 -6 -3 -12 -1
-12 5 0 6 -5 8 -11 4 -8 -4 -7 -9 2 -16 11 -7 10 -8 -4 -4 -11 3 -16 2 -12 -4
3 -6 1 -10 -4 -10 -15 0 -14 13 2 29 10 10 8 12 -7 9 -10 -2 -21 4 -23 12 -4
12 -3 12 5 2 7 -11 10 -11 15 3 4 9 3 14 -1 11 -4 -2 -9 5 -9 16 -2 20 -1 20
13 2 9 -11 13 -13 9 -6 -11 22 -15 61 -7 65 4 3 18 -1 32 -10 14 -8 17 -12 8
-9 -9 3 -22 -2 -29 -10 -10 -12 -8 -14 7 -11 27 4 45 17 39 28 -4 5 -2 9 4 9
5 0 11 -5 13 -12 3 -7 7 -5 11 6 5 11 3 15 -5 10 -7 -5 -8 -2 -3 7 5 8 5 11 0
7 -4 -4 -14 -3 -22 4 -11 8 -12 7 -7 -6 3 -9 2 -16 -3 -16 -15 0 -52 47 -45
56 4 5 -2 2 -13 -6 -11 -8 -17 -10 -13 -6 4 5 2 16 -5 25 -11 14 -10 14 6 2
10 -8 17 -9 17 -3 0 6 -4 13 -9 17 -10 5 -9 23 4 60 6 16 5 17 -4 5 -8 -11
-11 -12 -11 -2 0 8 -5 10 -12 6 -8 -4 -10 -3 -5 2 5 5 13 10 18 10 5 1 12 2
16 3 4 0 -2 8 -13 17 -10 8 -13 12 -5 8 10 -5 12 -3 7 7 -4 8 0 5 8 -5 9 -11
16 -15 16 -10 0 6 -3 14 -7 18 -4 4 -8 15 -8 24 0 11 -7 16 -19 14 -11 -2 -15
1 -11 7 3 6 14 11 23 11 15 1 15 2 -1 11 -9 6 -14 15 -11 21 5 7 1 9 -9 5 -9
-3 -19 -1 -23 5 -5 7 -2 8 6 3 8 -5 11 -4 7 1 -3 5 2 10 11 11 9 1 31 4 47 7
23 5 27 4 15 -5 -13 -9 -12 -10 3 -5 10 3 16 2 13 -2 -3 -5 8 -8 25 -8 16 0
29 3 29 6 0 4 7 7 16 7 14 0 14 -2 -2 -14 -10 -7 -13 -13 -6 -13 6 0 21 10 33
23 l21 22 -16 -35 c-16 -33 -16 -34 0 -15 13 15 15 16 11 3 -3 -9 1 -22 9 -29
12 -10 14 -8 11 7 -1 11 -6 25 -11 32 -4 7 -3 19 3 26 9 10 6 13 -11 12 -13
-1 -28 2 -35 7 -14 10 -36 0 -28 -13 8 -13 -44 -5 -57 8 -7 7 -17 8 -29 2 -19
-11 -52 -3 -44 10 3 4 -2 13 -10 20 -11 9 -15 9 -15 1z m11 -18 c-10 -4 -8
-10 10 -20 13 -8 17 -12 8 -9 -9 2 -21 0 -27 -6 -6 -6 -12 -6 -17 3 -6 8 -4
10 5 4 8 -5 11 -3 8 6 -3 8 -11 13 -17 11 -7 -1 -10 1 -8 6 3 4 16 8 29 9 13
0 17 -1 9 -4z m169 -23 c0 -5 -2 -10 -4 -10 -3 0 -8 5 -11 10 -3 6 -1 10 4 10
6 0 11 -4 11 -10z m-155 -60 c3 -6 -1 -7 -9 -4 -18 7 -21 14 -7 14 6 0 13 -4
16 -10z m15 -51 c-7 -11 -14 -18 -17 -15 -3 3 0 12 7 21 18 21 23 19 10 -6z
m11 -253 c-6 -8 -10 -18 -9 -24 2 -5 -1 -9 -7 -8 -5 0 -10 9 -10 18 -1 9 2 15
6 12 4 -2 10 0 14 6 3 5 9 10 12 10 3 0 0 -6 -6 -14z m19 -126 c-8 -5 -19 -10
-25 -10 -5 0 -3 5 5 10 8 5 20 10 25 10 6 0 3 -5 -5 -10z"/>
<path d="M1576 1493 c-6 -14 -5 -15 5 -6 7 7 10 15 7 18 -3 3 -9 -2 -12 -12z"/>
<path d="M2082 1476 c-4 -55 -17 -74 -47 -70 -20 2 -24 -1 -15 -10 11 -14 -3
-33 -25 -35 -5 -1 -10 -5 -10 -10 0 -5 -3 -13 -7 -17 -15 -14 -8 -26 7 -14 9
7 14 18 11 25 -2 6 2 12 9 12 7 0 11 -6 8 -14 -3 -7 -1 -13 4 -13 9 0 11 6 15
49 1 11 8 17 15 14 7 -3 11 -9 8 -13 -3 -5 0 -12 6 -16 9 -5 10 0 6 17 -6 23
-5 23 9 4 12 -17 12 -20 -1 -28 -8 -4 -15 -13 -15 -20 0 -8 3 -8 9 2 6 9 11
10 15 2 4 -6 2 -11 -5 -11 -7 0 -9 -3 -5 -7 4 -5 13 -1 19 8 10 13 15 14 24 4
9 -10 9 -14 -2 -19 -8 -3 -15 -11 -15 -18 0 -9 3 -9 10 2 5 8 12 11 17 7 4 -5
1 -12 -6 -16 -9 -6 -10 -11 -2 -15 6 -4 11 -2 11 4 0 6 5 8 11 4 8 -4 7 -9 -2
-15 -7 -4 -17 -5 -21 -3 -16 10 -8 -9 10 -22 15 -13 15 -13 0 -8 -12 4 -21 -3
-32 -24 -14 -27 -14 -31 0 -43 13 -10 14 -9 11 12 -4 19 -1 25 13 25 10 0 16
-5 13 -11 -4 -5 -2 -6 3 -2 4 4 9 21 9 36 0 16 7 37 15 47 8 10 10 15 3 11
-21 -13 -26 14 -6 36 13 16 14 18 1 9 -22 -17 -35 3 -16 26 12 15 11 16 -5 3
-16 -12 -20 -12 -34 1 -9 10 -12 21 -7 30 5 7 8 22 9 34 0 11 7 29 15 39 9 11
10 16 3 11 -7 -4 -13 -3 -13 2 0 13 -26 11 -28 -2z m14 -41 c-2 -19 -7 -35
-12 -34 -5 1 -7 6 -5 13 4 13 9 38 10 49 1 4 3 7 5 7 2 0 3 -16 2 -35z m34
-215 c0 -5 -4 -10 -10 -10 -5 0 -10 5 -10 10 0 6 5 10 10 10 6 0 10 -4 10 -10z"/>
<path d="M561 1460 c-11 -6 -11 -9 0 -13 11 -4 11 -6 -1 -6 -13 -1 -13 -2 0
-11 8 -5 15 -22 15 -37 0 -15 4 -34 8 -40 5 -7 5 -19 1 -25 -5 -7 -9 -19 -10
-28 -1 -8 -5 -25 -7 -36 -3 -13 2 -30 11 -41 9 -10 18 -25 20 -33 2 -8 8 -19
13 -25 7 -7 8 -4 4 8 -8 20 5 23 23 5 9 -9 12 -9 12 0 0 7 -6 12 -12 12 -7 0
-5 5 5 11 9 5 17 14 17 19 0 14 -23 8 -36 -10 -10 -11 -11 -9 -9 12 2 20 -1
25 -11 21 -8 -3 -14 -1 -15 3 0 5 -2 17 -4 26 -2 10 2 15 10 12 21 -8 30 18
11 32 -13 9 -14 13 -4 18 11 5 11 7 0 12 -10 5 -9 9 4 18 21 16 9 40 -15 32
-14 -5 -13 -4 2 8 17 13 25 32 9 22 -4 -2 -14 -1 -21 3 -9 6 -10 11 -2 15 6 4
11 3 11 -2 0 -5 6 -9 13 -9 6 0 21 -4 32 -9 18 -7 19 -6 6 9 -8 10 -16 15 -19
12 -3 -3 -15 1 -27 9 -12 8 -27 11 -34 6z m49 -74 c0 -2 -7 -9 -15 -16 -13
-11 -14 -10 -9 4 5 14 24 23 24 12z m-10 -81 c7 -9 8 -15 2 -15 -5 0 -12 7
-16 15 -3 8 -4 15 -2 15 2 0 9 -7 16 -15z m10 -87 c0 -12 -6 -9 -26 13 -19 22
-19 22 4 8 12 -8 22 -17 22 -21z"/>
<path d="M652 1434 c2 -12 -3 -19 -14 -19 -24 0 -34 -14 -14 -21 13 -5 14 -9
4 -21 -21 -26 -16 -53 14 -74 l28 -20 -3 20 c-4 23 -17 41 -17 23 0 -7 -5 -12
-11 -12 -8 0 -8 5 1 15 7 8 16 13 20 10 4 -3 10 2 13 10 4 9 1 12 -7 9 -10 -4
-13 4 -12 25 0 17 7 33 14 36 8 3 10 0 6 -7 -4 -6 -3 -8 3 -5 6 4 16 0 23 -9
7 -8 19 -13 27 -10 9 4 11 1 7 -6 -4 -6 -3 -8 3 -5 5 3 10 0 10 -8 0 -8 -5
-15 -10 -15 -5 0 -3 -8 4 -17 10 -11 10 -14 2 -9 -8 4 -13 2 -13 -5 0 -7 -6
-5 -13 5 -11 16 -17 17 -33 7 -18 -11 -17 -12 4 -6 13 4 22 2 22 -5 0 -6 -5
-8 -11 -4 -8 4 -8 0 0 -15 7 -11 17 -21 24 -21 8 0 8 -3 -2 -9 -8 -5 -10 -14
-6 -21 6 -9 4 -11 -5 -5 -9 6 -11 4 -5 -5 6 -9 4 -11 -5 -5 -9 5 -11 4 -6 -3
5 -8 2 -10 -9 -6 -14 6 -14 8 2 20 15 10 16 15 5 26 -11 11 -16 9 -33 -12 -10
-14 -17 -18 -14 -9 4 10 0 16 -9 16 -8 0 -14 -8 -13 -18 1 -11 8 -16 19 -14
22 5 33 -12 19 -29 -8 -9 -7 -18 2 -30 18 -24 46 -11 42 21 -1 14 4 27 12 30
8 3 12 12 9 19 -3 8 -1 14 5 14 5 0 9 6 7 13 -1 6 3 22 10 35 7 12 10 22 6 22
-3 0 1 11 10 25 9 14 14 30 11 34 -3 5 1 12 7 14 10 4 10 6 1 6 -7 1 -13 6
-13 12 0 5 5 7 10 4 6 -3 10 -1 10 5 0 7 -7 9 -16 6 -9 -3 -18 -6 -21 -6 -3 0
0 -6 6 -14 9 -10 8 -15 -3 -19 -8 -3 -20 0 -26 8 -6 8 -19 11 -27 8 -13 -5
-15 -2 -10 11 4 10 3 15 -4 11 -5 -4 -17 -1 -25 6 -13 11 -15 10 -12 -7z m118
-53 c0 -6 -4 -12 -8 -15 -5 -3 -9 1 -9 9 0 8 4 15 9 15 4 0 8 -4 8 -9z m-129
-15 c-9 -11 -9 -15 0 -18 8 -3 7 -7 -3 -16 -12 -9 -14 -8 -13 6 1 19 13 42 22
42 3 0 0 -6 -6 -14z m93 -68 c-3 -4 -9 -8 -15 -8 -5 0 -9 4 -9 8 0 5 7 9 15 9
8 0 12 -4 9 -9z m-50 -37 c3 -5 -1 -11 -9 -14 -9 -4 -12 -1 -8 9 6 16 10 17
17 5z m10 -60 c3 -5 0 -14 -8 -20 -10 -9 -15 -8 -19 3 -9 22 15 37 27 17z"/>
<path d="M1595 1410 c10 -11 20 -20 23 -20 3 0 -3 9 -13 20 -10 11 -20 20 -23
20 -3 0 3 -9 13 -20z"/>
<path d="M674 1392 c-14 -11 -15 -32 -1 -29 6 1 11 -4 9 -11 -1 -8 2 -11 8 -7
6 4 16 2 23 -4 9 -7 13 -5 14 7 1 20 -39 53 -53 44z m31 -22 c10 -11 16 -20
13 -20 -3 0 -13 9 -23 20 -10 11 -16 20 -13 20 3 0 13 -9 23 -20z"/>
<path d="M1455 1389 c-4 -6 -5 -12 -2 -15 2 -3 7 2 10 11 7 17 1 20 -8 4z"/>
<path d="M1904 1368 c-5 -7 -10 -22 -10 -33 -3 -39 -4 -43 -16 -41 -7 1 -19 6
-27 11 -10 5 -16 4 -19 -3 -2 -7 -8 -10 -13 -6 -5 3 -1 -10 10 -29 18 -32 18
-36 3 -58 -15 -22 -15 -23 1 -10 15 12 18 10 27 -14 6 -15 8 -31 5 -35 -3 -5
1 -12 9 -17 15 -8 16 -10 16 -43 0 -12 7 -20 16 -20 13 0 14 3 5 14 -9 11 -9
16 0 21 6 4 16 1 21 -6 8 -12 9 -11 5 1 -2 9 -14 14 -26 13 -13 -2 -20 1 -16
7 3 6 13 10 21 10 17 0 18 12 2 28 -17 17 -33 15 -19 -2 9 -11 9 -16 0 -22 -8
-4 -9 -3 -5 4 4 7 2 10 -6 9 -7 -2 -9 -2 -5 1 4 2 2 11 -5 20 -8 9 -8 13 -2 9
7 -4 14 0 17 8 4 10 1 12 -11 9 -9 -3 -6 2 8 11 23 15 24 15 3 10 -14 -4 -23
-2 -23 4 0 6 3 10 8 10 18 -3 35 2 28 8 -12 12 -36 12 -36 0 0 -7 -7 -3 -15 7
-8 10 -12 23 -9 27 3 5 0 9 -7 9 -7 0 -9 3 -6 6 4 4 13 1 22 -6 11 -9 15 -9
15 -1 0 7 5 9 11 6 6 -5 4 -11 -7 -19 -15 -11 -15 -13 0 -13 9 0 16 5 16 11 0
6 5 4 10 -4 5 -8 10 -10 11 -5 6 40 5 54 -2 49 -5 -3 -6 2 -3 11 4 9 13 14 20
11 8 -3 11 0 8 9 -3 8 -10 13 -14 12 -4 -1 -8 1 -9 6 -1 7 3 8 14 6 3 -1 10
-3 15 -4 6 -1 15 -3 21 -4 5 0 7 -6 3 -12 -4 -8 -9 -7 -15 2 -12 20 -11 1 2
-22 10 -19 9 -20 -13 -9 -18 10 -21 10 -11 0 6 -7 9 -20 6 -29 -5 -13 -3 -14
8 -3 20 19 31 14 24 -10 -5 -22 -5 -21 10 2 13 19 15 20 11 5 -6 -20 -6 -20 9
-1 8 11 15 25 15 30 0 6 5 4 10 -4 5 -8 10 -10 10 -5 0 6 10 11 23 12 21 2 21
1 -3 -12 -14 -7 -28 -11 -32 -9 -4 2 -6 -5 -5 -16 2 -25 1 -25 32 6 14 14 29
23 33 20 4 -3 14 5 22 17 12 20 12 21 -3 8 -13 -10 -20 -11 -30 -2 -8 6 -17 7
-22 3 -4 -4 -3 3 4 15 8 16 8 24 -1 29 -7 4 -8 3 -4 -4 4 -7 2 -12 -3 -12 -6
0 -10 -3 -10 -7 4 -26 -2 -35 -15 -24 -11 10 -17 8 -29 -9 -13 -19 -15 -19
-21 -4 -3 9 -2 22 3 28 10 12 3 30 -14 33 -5 1 -17 4 -26 8 -10 4 -21 0 -25
-7z m99 -63 c-3 -9 -8 -14 -10 -11 -3 3 -2 9 2 15 9 16 15 13 8 -4z m-93 -25
c0 -5 -2 -10 -4 -10 -3 0 -8 5 -11 10 -3 6 -1 10 4 10 6 0 11 -4 11 -10z m-46
-66 c3 -8 2 -12 -4 -9 -6 3 -10 10 -10 16 0 14 7 11 14 -7z"/>
<path d="M1433 1333 c0 -9 4 -10 14 -2 7 6 13 12 13 14 0 1 -6 2 -13 2 -8 0
-14 -6 -14 -14z"/>
<path d="M1606 1338 c3 -5 10 -6 15 -3 13 9 11 12 -6 12 -8 0 -12 -4 -9 -9z"/>
<path d="M1775 1309 c-4 -6 -5 -12 -2 -15 2 -3 7 2 10 11 7 17 1 20 -8 4z"/>
<path d="M685 1290 c10 -11 20 -20 22 -20 2 0 -2 9 -9 20 -7 11 -17 20 -22 20
-5 0 -1 -9 9 -20z"/>
<path d="M1493 1295 c0 -8 4 -12 9 -9 5 3 6 10 3 15 -9 13 -12 11 -12 -6z"/>
<path d="M1675 1300 c-3 -5 -1 -10 4 -10 6 0 11 5 11 10 0 6 -2 10 -4 10 -3 0
-8 -4 -11 -10z"/>
<path d="M607 1276 c-10 -8 -14 -17 -9 -20 6 -3 12 1 15 9 4 8 15 12 27 10 11
-2 18 0 15 6 -8 13 -27 11 -48 -5z"/>
<path d="M2070 1279 c0 -6 -4 -8 -9 -4 -12 7 -33 -29 -24 -39 3 -3 2 -6 -4 -6
-15 0 -34 26 -25 35 4 4 -5 0 -20 -9 -27 -18 -46 -8 -32 17 6 9 5 9 -8 0 -8
-7 -19 -9 -23 -5 -5 4 -5 2 -2 -5 4 -6 1 -14 -5 -17 -7 -3 -2 -3 11 0 16 4 21
3 17 -5 -4 -6 -14 -11 -23 -11 -9 0 -13 -3 -10 -6 3 -4 2 -14 -3 -24 -7 -13
-4 -22 11 -36 11 -10 18 -23 15 -29 -6 -16 20 -49 29 -36 3 6 0 11 -7 11 -8 0
-6 5 5 11 9 5 17 15 17 21 0 7 -5 6 -15 -2 -10 -9 -15 -9 -15 -1 0 6 6 11 13
11 8 0 7 3 -3 9 -8 6 -18 7 -22 5 -4 -3 -5 1 -2 9 3 8 0 18 -5 22 -6 3 -9 11
-5 16 3 5 10 7 15 3 5 -3 7 -10 4 -15 -3 -5 1 -6 10 -3 14 6 14 8 -2 21 -10 8
-12 11 -4 7 10 -5 12 -3 7 7 -4 8 0 5 8 -5 9 -11 17 -17 17 -13 1 4 2 11 3 16
0 5 4 13 8 17 4 3 6 -3 3 -15 -4 -22 10 -29 18 -8 4 9 6 8 6 -2 1 -11 4 -11
16 -1 10 9 15 9 15 1 0 -6 -5 -11 -11 -11 -5 0 -7 -5 -3 -11 5 -8 9 -8 14 1 5
9 9 9 14 1 6 -10 -6 -15 -26 -12 -15 2 -8 -14 12 -27 13 -8 20 -8 20 -1 0 5 5
7 11 3 8 -4 7 -9 -2 -15 -7 -4 -16 -6 -20 -3 -4 2 -9 -2 -12 -9 -3 -7 5 -13
21 -14 15 0 20 2 13 7 -10 5 -9 9 2 13 12 4 15 0 12 -14 -3 -13 0 -19 8 -16 7
2 11 11 9 21 -2 9 1 16 6 16 4 0 8 -10 9 -22 0 -13 2 -30 4 -38 2 -9 -2 -15
-13 -14 -10 1 -14 -4 -11 -12 3 -8 9 -12 13 -9 5 3 11 1 14 -4 4 -5 2 -12 -3
-15 -5 -4 -12 -2 -16 4 -3 5 -11 10 -18 10 -8 0 -8 -3 1 -12 7 -7 12 -17 12
-23 0 -5 -5 -3 -10 5 -5 8 -10 11 -11 5 0 -5 -2 -19 -4 -30 -2 -10 0 -24 5
-30 6 -8 5 -12 -4 -12 -9 0 -13 11 -11 33 1 22 -2 31 -11 27 -6 -2 -11 -15 -9
-29 1 -13 -2 -27 -8 -31 -6 -4 -7 -1 -2 7 5 9 4 11 -3 6 -9 -5 -9 -13 -2 -26
8 -16 7 -18 -9 -15 -14 3 -19 -2 -18 -15 1 -21 23 -34 39 -23 7 4 8 1 4 -6 -5
-7 -14 -10 -22 -7 -8 3 -11 0 -8 -9 3 -8 9 -14 12 -13 4 0 13 0 20 -1 15 -1 6
-21 -9 -21 -6 0 -7 5 -3 12 4 7 3 8 -5 4 -9 -6 -9 -11 0 -22 7 -9 8 -14 1 -14
-6 0 -12 3 -15 8 -2 4 -2 0 0 -8 3 -8 5 -19 6 -25 1 -5 6 -13 10 -16 5 -3 2
-9 -6 -12 -11 -4 -15 0 -12 13 2 10 -3 21 -12 24 -13 6 -13 9 1 31 16 24 16
25 -6 22 -12 -1 -23 3 -23 10 0 6 -3 15 -8 19 -4 4 1 16 10 27 17 19 17 20 -4
8 -19 -10 -22 -9 -17 3 3 9 9 15 12 14 28 -3 34 2 21 19 -8 9 -9 14 -3 10 17
-10 51 19 38 33 -6 6 -18 8 -28 4 -14 -5 -14 -9 -4 -23 7 -9 8 -13 4 -9 -5 4
-15 3 -23 -3 -9 -9 -13 -8 -13 0 0 6 5 11 12 11 6 0 8 3 4 7 -4 5 -14 -1 -22
-11 -8 -11 -14 -14 -14 -8 0 22 -2 27 -12 39 -7 8 -5 18 4 31 13 19 18 22 39
22 5 0 7 5 3 11 -4 8 -9 7 -15 -2 -5 -8 -9 -9 -9 -4 0 6 6 17 12 23 10 10 7
12 -12 9 -14 -3 -32 1 -40 7 -13 9 -13 9 -2 -6 9 -11 10 -18 2 -23 -10 -6 -9
-34 3 -65 12 -35 18 -55 15 -56 -2 0 3 -8 11 -17 12 -16 8 -22 -12 -18 -5 1
-6 -3 -2 -9 3 -6 10 -8 15 -5 7 4 33 -54 35 -77 0 -3 3 -9 7 -13 4 -4 4 -14 1
-23 -4 -10 -2 -13 5 -8 11 7 16 -7 15 -41 -1 -7 3 -13 9 -13 5 0 7 -4 4 -8 -2
-4 -1 -14 3 -21 6 -9 11 -10 15 -2 4 6 1 11 -6 11 -9 0 -9 3 2 10 8 5 15 17
15 27 0 10 4 24 9 32 6 9 5 12 -1 8 -22 -14 -21 22 1 46 20 22 21 26 7 35 -13
10 -13 10 4 5 19 -7 19 -6 2 11 -9 10 -14 22 -11 28 4 6 2 8 -3 5 -6 -4 -10 4
-10 18 0 28 1 29 28 14 11 -5 17 -14 14 -19 -3 -5 -2 -11 3 -13 4 -3 7 16 7
41 -1 48 10 76 26 66 9 -5 10 -2 13 55 1 19 7 36 14 39 14 4 16 42 3 42 -6 0
-13 -4 -16 -10 -3 -5 -1 -10 5 -10 6 0 8 -4 5 -10 -12 -20 -23 -9 -20 20 2 25
0 28 -15 20 -13 -7 -22 -5 -31 6 -16 20 -20 44 -8 44 6 0 8 4 5 9 -3 5 1 12
10 15 8 3 12 11 9 17 -5 7 -11 7 -17 1 -11 -11 -38 -5 -38 8 0 5 8 7 18 5 10
-2 25 1 33 6 8 5 12 9 9 10 -3 0 -13 2 -22 4 -10 2 -18 -1 -18 -6z m-1 -63
c-3 -3 -11 5 -18 17 -13 21 -12 21 5 5 10 -10 16 -20 13 -22z m-119 -155 c0
-5 -6 -14 -14 -20 -12 -10 -14 -9 -11 6 2 10 4 19 4 21 2 6 21 1 21 -7z m80
-81 c0 -5 -4 -10 -10 -10 -5 0 -10 5 -10 10 0 6 5 10 10 10 6 0 10 -4 10 -10z
m-60 -40 c0 -5 -5 -10 -11 -10 -5 0 -7 5 -4 10 3 6 8 10 11 10 2 0 4 -4 4 -10z
m75 -40 c3 -5 1 -10 -4 -10 -6 0 -11 5 -11 10 0 6 2 10 4 10 3 0 8 -4 11 -10z
m2 -165 c0 -8 -4 -12 -9 -9 -4 3 -8 9 -8 15 0 5 4 9 8 9 5 0 9 -7 9 -15z"/>
<path d="M1593 1254 c0 -9 4 -11 12 -4 7 5 14 9 16 7 2 -1 3 0 1 2 -7 11 -29
7 -29 -5z"/>
<path d="M1734 1258 c-4 -7 -4 -10 1 -6 4 4 15 2 24 -5 14 -11 14 -10 2 6 -16
20 -18 21 -27 5z"/>
<path d="M1776 1258 c3 -5 10 -6 15 -3 13 9 11 12 -6 12 -8 0 -12 -4 -9 -9z"/>
<path d="M1807 1239 c7 -7 15 -10 18 -7 3 3 -2 9 -12 12 -14 6 -15 5 -6 -5z"/>
<path d="M1389 1223 c-13 -16 -12 -17 4 -4 16 13 21 21 13 21 -2 0 -10 -8 -17
-17z"/>
<path d="M1474 1220 c0 -13 4 -16 10 -10 7 7 7 13 0 20 -6 6 -10 3 -10 -10z"/>
<path d="M1693 1225 c0 -8 4 -12 9 -9 5 3 6 10 3 15 -9 13 -12 11 -12 -6z"/>
<path d="M2156 1233 c-13 -13 -5 -25 12 -19 14 5 13 3 -3 -9 -11 -9 -21 -24
-21 -35 -1 -16 2 -17 17 -9 11 5 19 13 20 17 0 4 2 17 5 29 3 20 -17 38 -30
26z m18 -48 c-4 -8 -11 -12 -16 -9 -6 4 -5 10 3 15 19 12 19 11 13 -6z"/>
<path d="M1725 1219 c-3 -4 2 -6 10 -5 21 3 28 13 10 13 -9 0 -18 -4 -20 -8z"/>
<path d="M1756 1201 c-3 -5 2 -15 12 -22 15 -12 16 -12 5 2 -7 9 -10 19 -6 22
3 4 4 7 0 7 -3 0 -8 -4 -11 -9z"/>
<path d="M1975 1200 c-5 -9 -1 -32 9 -48 5 -8 4 -18 -2 -24 -8 -8 -8 -17 -1
-30 5 -10 7 -18 3 -18 -3 0 -1 -6 5 -14 12 -15 2 -27 -32 -39 -14 -5 -16 -11
-8 -26 6 -10 7 -22 3 -26 -4 -4 10 3 31 15 31 18 40 20 53 9 8 -7 14 -8 13 -3
-3 18 1 34 9 33 19 -3 33 2 27 10 -3 5 -1 12 3 15 5 3 8 15 7 27 -2 23 -30 40
-52 32 -7 -3 -11 4 -10 16 1 12 6 21 11 21 5 0 1 7 -10 15 -17 12 -21 12 -33
-3 -12 -15 -13 -15 -8 -1 3 9 0 23 -6 30 -10 11 -9 11 3 2 10 -8 21 -9 30 -3
16 10 16 10 -18 14 -13 2 -25 0 -27 -4z m51 -55 c1 -8 -1 -13 -6 -10 -4 3 -14
-3 -21 -12 -12 -15 -12 -16 3 -10 10 3 20 2 24 -4 3 -6 12 -8 19 -5 9 3 12 -2
10 -15 -3 -15 0 -19 10 -15 21 8 25 -6 9 -29 -8 -10 -14 -15 -14 -9 0 5 -7 0
-15 -10 -9 -12 -15 -15 -15 -7 0 11 -3 11 -17 0 -11 -10 -14 -10 -9 -1 12 20
-4 14 -26 -10 -11 -13 -17 -18 -14 -11 4 6 1 14 -4 16 -6 3 -5 4 2 3 7 -1 21
8 32 22 16 20 17 25 5 33 -8 5 -10 9 -6 9 4 0 3 8 -2 19 -8 14 -6 23 9 38 10
12 17 24 14 27 -2 3 -1 4 3 1 4 -3 8 -12 9 -20z"/>
<path d="M2006 1103 c-3 -3 -1 -14 4 -24 6 -9 7 -24 4 -33 -4 -10 0 -14 13
-12 24 4 26 49 3 64 -10 6 -20 8 -24 5z m34 -47 c0 -12 -5 -7 -19 24 -11 24
-11 24 3 6 9 -11 16 -24 16 -30z"/>
<path d="M1496 1173 c-6 -14 -5 -15 5 -6 7 7 10 15 7 18 -3 3 -9 -2 -12 -12z"/>
<path d="M1950 1180 c0 -5 5 -10 11 -10 5 0 7 5 4 10 -3 6 -8 10 -11 10 -2 0
-4 -4 -4 -10z"/>
<path d="M2115 1180 c3 -5 8 -10 11 -10 2 0 4 5 4 10 0 6 -5 10 -11 10 -5 0
-7 -4 -4 -10z"/>
<path d="M1315 1149 c-4 -6 -5 -12 -2 -15 2 -3 7 2 10 11 7 17 1 20 -8 4z"/>
<path d="M670 1140 c0 -5 7 -10 16 -10 8 0 12 5 9 10 -3 6 -10 10 -16 10 -5 0
-9 -4 -9 -10z"/>
<path d="M1396 1133 c-6 -14 -5 -15 5 -6 7 7 10 15 7 18 -3 3 -9 -2 -12 -12z"/>
<path d="M1430 1140 c0 -5 9 -8 20 -7 21 1 18 10 -5 13 -8 1 -15 -2 -15 -6z"/>
<path d="M1835 1140 c-3 -5 -1 -10 4 -10 6 0 11 5 11 10 0 6 -2 10 -4 10 -3 0
-8 -4 -11 -10z"/>
<path d="M596 1101 c-4 -6 -1 -11 6 -11 8 0 6 -5 -5 -11 -9 -6 -15 -15 -11
-20 3 -6 12 -3 20 8 13 16 14 16 8 1 -3 -10 -2 -18 4 -18 12 0 10 18 -5 44 -7
12 -13 15 -17 7z"/>
<path d="M1336 1102 c-3 -5 1 -9 9 -9 8 0 12 4 9 9 -3 4 -7 8 -9 8 -2 0 -6 -4
-9 -8z"/>
<path d="M1749 1097 c6 -8 7 -18 3 -22 -4 -5 -1 -5 6 -1 10 6 10 11 1 22 -6 8
-14 14 -16 14 -3 0 0 -6 6 -13z"/>
<path d="M1850 1099 c0 -5 5 -7 10 -4 6 3 10 8 10 11 0 2 -4 4 -10 4 -5 0 -10
-5 -10 -11z"/>
<path d="M2110 1095 c0 -8 4 -15 10 -15 5 0 7 7 4 15 -4 8 -8 15 -10 15 -2 0
-4 -7 -4 -15z"/>
<path d="M1680 1080 c-9 -6 -10 -10 -3 -10 6 0 15 5 18 10 8 12 4 12 -15 0z"/>
<path d="M1176 1062 c-3 -5 1 -9 9 -9 8 0 12 4 9 9 -3 4 -7 8 -9 8 -2 0 -6 -4
-9 -8z"/>
<path d="M1216 1058 c3 -5 10 -6 15 -3 13 9 11 12 -6 12 -8 0 -12 -4 -9 -9z"/>
<path d="M1321 1056 c-9 -11 -9 -16 1 -22 7 -4 10 -4 6 1 -4 4 -3 14 3 22 6 7
9 13 6 13 -2 0 -10 -6 -16 -14z"/>
<path d="M1679 1055 c-1 -3 -2 -8 -3 -12 -1 -5 -5 -15 -10 -23 -7 -12 -6 -13
4 -3 13 12 23 43 14 43 -2 0 -5 -2 -5 -5z"/>
<path d="M1625 1040 c-3 -6 1 -7 9 -4 18 7 21 14 7 14 -6 0 -13 -4 -16 -10z"/>
<path d="M1267 1019 c7 -7 15 -10 18 -7 3 3 -2 9 -12 12 -14 6 -15 5 -6 -5z"/>
<path d="M1735 1020 c-2 -3 9 -6 25 -6 17 0 27 2 25 5 -8 7 -45 9 -50 1z"/>
<path d="M1356 998 c3 -5 10 -6 15 -3 13 9 11 12 -6 12 -8 0 -12 -4 -9 -9z"/>
<path d="M1275 989 c-4 -6 -5 -12 -2 -15 2 -3 7 2 10 11 7 17 1 20 -8 4z"/>
<path d="M1429 983 c-13 -16 -12 -17 4 -4 16 13 21 21 13 21 -2 0 -10 -8 -17
-17z"/>
<path d="M1755 980 c3 -5 8 -10 11 -10 2 0 4 5 4 10 0 6 -5 10 -11 10 -5 0 -7
-4 -4 -10z"/>
<path d="M1876 973 c-6 -14 -5 -15 5 -6 7 7 10 15 7 18 -3 3 -9 -2 -12 -12z"/>
<path d="M1196 958 c3 -5 10 -6 15 -3 13 9 11 12 -6 12 -8 0 -12 -4 -9 -9z"/>
<path d="M1136 938 c3 -5 10 -6 15 -3 13 9 11 12 -6 12 -8 0 -12 -4 -9 -9z"/>
<path d="M1290 941 c0 -6 4 -13 10 -16 6 -3 7 1 4 9 -7 18 -14 21 -14 7z"/>
<path d="M1530 941 c0 -6 4 -13 10 -16 6 -3 7 1 4 9 -7 18 -14 21 -14 7z"/>
<path d="M2015 940 c3 -5 8 -10 11 -10 2 0 4 5 4 10 0 6 -5 10 -11 10 -5 0 -7
-4 -4 -10z"/>
<path d="M1674 900 c0 -13 4 -16 10 -10 7 7 7 13 0 20 -6 6 -10 3 -10 -10z"/>
<path d="M1714 909 c-3 -6 -2 -15 3 -20 5 -5 9 -1 9 11 0 23 -2 24 -12 9z"/>
<path d="M1344 902 c4 -3 14 -7 22 -8 9 -1 13 0 10 4 -4 3 -14 7 -22 8 -9 1
-13 0 -10 -4z"/>
<path d="M1394 902 c4 -3 14 -7 22 -8 9 -1 13 0 10 4 -4 3 -14 7 -22 8 -9 1
-13 0 -10 -4z"/>
<path d="M1576 902 c-3 -5 1 -9 9 -9 8 0 12 4 9 9 -3 4 -7 8 -9 8 -2 0 -6 -4
-9 -8z"/>
<path d="M1990 895 c-10 -12 -9 -16 5 -21 13 -6 14 -9 3 -16 -10 -8 -10 -9 2
-5 8 2 13 11 11 18 -2 8 -4 20 -4 27 0 15 -2 15 -17 -3z"/>
<path d="M113 887 c0 -8 6 -14 14 -14 9 0 10 4 2 14 -6 7 -12 13 -14 13 -1 0
-2 -6 -2 -13z"/>
<path d="M1589 863 c-13 -16 -12 -17 4 -4 16 13 21 21 13 21 -2 0 -10 -8 -17
-17z"/>
<path d="M273 835 c0 -8 4 -12 9 -9 5 3 6 10 3 15 -9 13 -12 11 -12 -6z"/>
<path d="M1635 831 c-3 -5 -2 -12 3 -15 5 -3 9 1 9 9 0 17 -3 19 -12 6z"/>
<path d="M1876 827 c3 -10 9 -15 12 -12 3 3 0 11 -7 18 -10 9 -11 8 -5 -6z"/>
<path d="M231 827 c2 -1 13 -9 24 -17 19 -14 19 -14 6 3 -7 9 -18 17 -24 17
-6 0 -8 -1 -6 -3z"/>
<path d="M426 822 c-2 -4 4 -8 14 -8 10 0 16 4 14 8 -3 4 -9 8 -14 8 -5 0 -11
-4 -14 -8z"/>
<path d="M1755 820 c-3 -5 3 -7 12 -5 10 1 25 -2 33 -8 12 -9 13 -9 3 3 -15
16 -41 22 -48 10z"/>
<path d="M153 805 c0 -8 4 -12 9 -9 5 3 6 10 3 15 -9 13 -12 11 -12 -6z"/>
<path d="M485 800 c-4 -6 -11 -7 -17 -4 -7 5 -8 2 -4 -5 5 -7 1 -20 -9 -31
-12 -14 -13 -20 -4 -26 7 -4 10 -3 7 2 -7 10 17 35 26 28 3 -2 4 -1 1 2 -2 4
0 15 6 25 10 20 5 27 -6 9z"/>
<path d="M510 789 c-7 -11 -10 -23 -7 -25 2 -2 9 7 15 21 14 30 7 33 -8 4z"/>
<path d="M410 794 c0 -2 9 -8 20 -14 11 -6 20 -7 20 -2 0 6 -9 12 -20 15 -11
3 -20 3 -20 1z"/>
<path d="M282 774 c-7 -8 -8 -14 -3 -14 10 0 25 19 20 25 -2 1 -10 -3 -17 -11z"/>
<path d="M392 774 c-1 -8 -3 -21 -4 -29 -1 -8 -5 -15 -10 -15 -4 0 -8 -5 -8
-11 0 -8 4 -8 13 0 11 8 14 5 14 -19 l0 -30 -24 22 c-12 12 -23 17 -23 12 0
-5 9 -16 19 -24 11 -7 18 -17 15 -22 -3 -4 -2 -8 3 -8 4 0 16 14 25 30 9 17
24 30 33 30 21 0 19 -17 -2 -24 -15 -4 -15 -5 1 -3 29 3 30 22 2 41 -19 12
-24 12 -20 3 3 -8 -1 -19 -9 -25 -10 -9 -13 -3 -13 28 0 32 2 37 13 28 7 -6
13 -6 13 -2 0 5 -8 14 -18 21 -15 9 -19 8 -20 -3z"/>
<path d="M1719 773 c-13 -16 -12 -17 4 -4 16 13 21 21 13 21 -2 0 -10 -8 -17
-17z"/>
<path d="M330 773 c0 -1 9 -7 19 -12 14 -8 20 -7 24 2 3 7 -5 12 -19 12 -13 0
-24 -1 -24 -2z"/>
<path d="M215 750 c-3 -5 -11 -8 -16 -5 -14 9 -11 -5 5 -21 18 -18 32 -19 17
-1 -6 8 -8 17 -4 20 10 11 45 8 38 -2 -3 -6 4 -15 15 -21 15 -8 19 -17 15 -28
-13 -32 -14 -52 -3 -52 5 0 8 6 5 14 -3 8 0 22 8 32 12 17 10 21 -12 35 -13 9
-23 20 -21 25 5 13 -39 17 -47 4z"/>
<path d="M300 750 c-13 -8 -12 -11 5 -24 25 -19 30 -19 44 -2 9 11 9 16 0 22
-7 4 -9 3 -6 -3 7 -12 -17 -25 -27 -16 -10 10 -7 25 4 18 6 -3 10 -1 10 4 0
13 -10 14 -30 1z"/>
<path d="M110 736 c-5 -5 -10 -15 -10 -20 0 -6 5 -3 11 6 5 10 16 15 24 12 8
-4 15 -2 15 3 0 13 -27 12 -40 -1z"/>
<path d="M1920 740 c-9 -6 -10 -10 -3 -10 6 0 15 5 18 10 8 12 4 12 -15 0z"/>
<path d="M155 719 c-4 -6 -12 -8 -19 -6 -6 3 -12 -6 -12 -19 l-2 -24 20 25
c11 14 24 23 29 20 5 -4 9 -1 9 4 0 14 -17 14 -25 0z"/>
<path d="M191 710 c1 -8 -1 -23 -6 -33 -11 -27 -1 -29 11 -2 7 14 8 28 2 37
-7 10 -8 10 -7 -2z"/>
<path d="M222 689 c-13 -16 -17 -27 -10 -24 13 5 42 45 36 50 -2 1 -13 -11
-26 -26z"/>
<path d="M256 695 c-3 -8 -1 -15 4 -15 6 0 10 7 10 15 0 8 -2 15 -4 15 -2 0
-6 -7 -10 -15z"/>
<path d="M503 696 c-7 -8 -18 -16 -25 -19 -7 -2 -10 -7 -7 -11 4 -4 20 4 35
18 16 14 25 25 19 25 -5 0 -15 -6 -22 -13z"/>
<path d="M155 690 c-3 -5 -3 -10 2 -10 4 0 1 -5 -7 -10 -10 -6 -11 -10 -2 -10
6 0 12 -5 12 -11 0 -5 -5 -7 -12 -3 -7 4 -8 3 -4 -5 12 -18 27 -2 22 24 -3 13
1 26 7 29 9 3 9 5 0 5 -6 1 -15 -3 -18 -9z"/>
<path d="M306 674 c-9 -23 -4 -24 17 -2 13 14 14 18 3 18 -8 0 -17 -7 -20 -16z"/>
<path d="M542 670 c7 -10 14 -18 15 -16 6 6 -9 36 -18 36 -5 0 -4 -9 3 -20z"/>
<path d="M246 655 c4 -8 8 -15 10 -15 2 0 4 7 4 15 0 8 -4 15 -10 15 -5 0 -7
-7 -4 -15z"/>
<path d="M325 660 c-3 -5 -1 -10 4 -10 6 0 11 5 11 10 0 6 -2 10 -4 10 -3 0
-8 -4 -11 -10z"/>
<path d="M416 655 c-3 -8 -1 -15 3 -15 5 0 11 7 15 15 3 8 1 15 -3 15 -5 0
-11 -7 -15 -15z"/>
<path d="M450 655 c0 -8 4 -15 10 -15 5 0 7 7 4 15 -4 8 -8 15 -10 15 -2 0 -4
-7 -4 -15z"/>
<path d="M494 654 c-18 -14 -18 -14 6 -3 31 14 36 19 24 19 -6 0 -19 -7 -30
-16z"/>
<path d="M234 634 c8 -17 21 -36 30 -43 8 -7 12 -20 9 -29 -4 -14 -3 -15 5 -2
8 10 7 19 -1 30 -18 22 -26 33 -43 55 -13 18 -13 17 0 -11z"/>
<path d="M180 628 l-25 -19 24 11 c21 11 26 9 47 -16 l23 -29 -21 -18 c-11
-10 -18 -21 -14 -24 4 -4 11 -1 17 7 8 13 10 13 19 0 7 -11 9 -9 6 10 -1 14
-13 42 -27 62 l-25 36 -24 -20z"/>
<path d="M340 630 c-6 -11 -15 -18 -19 -15 -5 2 -14 -2 -21 -10 -9 -10 -9 -15
-1 -15 6 0 11 5 11 10 0 6 3 9 8 9 20 -3 32 2 32 16 0 8 5 15 10 15 6 0 10 -6
10 -14 0 -8 7 -16 15 -20 13 -5 13 -2 -1 19 -20 30 -30 31 -44 5z"/>
<path d="M515 639 c-11 -16 -1 -19 13 -3 7 8 8 14 3 14 -5 0 -13 -5 -16 -11z"/>
<path d="M295 630 c-3 -5 -13 -7 -23 -4 -14 5 -14 4 -2 -4 8 -6 19 -7 25 -3 5
5 17 11 25 14 12 4 12 6 -2 6 -9 1 -19 -3 -23 -9z"/>
<path d="M397 629 c7 -7 15 -10 18 -7 3 3 -2 9 -12 12 -14 6 -15 5 -6 -5z"/>
<path d="M416 605 c-15 -20 -22 -22 -38 -14 -24 13 -82 -18 -85 -47 -3 -16 -1
-16 9 4 14 27 20 28 38 2 8 -11 19 -20 24 -20 5 0 0 11 -12 23 l-22 24 30 0
c24 0 27 -3 19 -14 -6 -7 -8 -13 -4 -13 4 0 13 7 19 16 11 14 14 14 35 -3 19
-16 22 -23 13 -39 -7 -14 -7 -25 0 -35 8 -12 9 -11 5 2 -3 9 1 26 10 38 12 17
18 20 29 10 10 -8 14 -8 14 0 0 6 -5 11 -11 11 -5 0 -7 6 -3 13 5 8 2 7 -10
-2 -15 -12 -19 -12 -34 4 -16 17 -16 17 2 11 10 -3 24 -2 31 4 18 15 43 -22
39 -55 -2 -22 0 -23 17 -15 23 13 25 25 3 16 -11 -4 -15 -2 -11 8 3 8 -3 26
-14 39 -11 15 -17 33 -13 44 3 10 -1 7 -10 -7 -8 -14 -15 -19 -16 -12 0 6 -5
12 -11 12 -8 0 -8 -4 0 -13 8 -11 5 -14 -19 -14 l-30 0 22 24 c12 13 17 23 12
23 -5 0 -18 -11 -28 -25z"/>
<path d="M530 615 c0 -8 4 -15 10 -15 5 0 7 7 4 15 -4 8 -8 15 -10 15 -2 0 -4
-7 -4 -15z"/>
<path d="M180 600 c0 -5 7 -7 15 -4 8 4 15 8 15 10 0 2 -7 4 -15 4 -8 0 -15
-4 -15 -10z"/>
<path d="M511 605 c0 -13 24 -45 33 -45 4 0 5 4 2 9 -4 5 -3 11 1 14 5 2 2 2
-4 1 -7 -2 -17 5 -22 14 -6 9 -10 13 -10 7z"/>
<path d="M201 573 c0 -11 3 -13 6 -5 2 6 10 9 15 6 7 -4 8 -2 4 4 -11 18 -26
14 -25 -5z"/>
<path d="M388 535 c-10 -13 -18 -28 -18 -33 0 -5 -10 -16 -22 -24 -24 -16 -17
-39 10 -37 15 1 15 2 0 6 -21 5 -24 23 -4 23 7 0 19 13 26 30 7 16 15 28 19
26 4 -3 8 4 8 15 2 24 2 24 -19 -6z"/>
<path d="M421 534 c0 -11 3 -14 6 -6 3 7 2 16 -1 19 -3 4 -6 -2 -5 -13z"/>
<path d="M270 531 c0 -6 9 -15 21 -21 18 -10 19 -14 6 -28 -25 -30 -30 -48 -5
-20 14 15 28 25 32 21 3 -3 6 -1 6 5 0 7 -4 12 -8 12 -5 0 -18 9 -30 20 -12
12 -22 16 -22 11z"/>
<path d="M310 531 c0 -6 5 -13 12 -17 6 -4 8 -3 4 4 -3 5 0 13 6 15 8 3 6 6
-4 6 -10 1 -18 -3 -18 -8z"/>
<path d="M475 521 c3 -5 -1 -11 -7 -14 -7 -2 -11 -7 -8 -10 3 -3 13 0 23 8 16
11 16 13 2 19 -9 3 -14 2 -10 -3z"/>
<path d="M215 510 c3 -5 12 -7 21 -3 8 3 14 2 13 -3 -3 -20 2 -34 12 -34 8 0
7 6 -2 16 -12 15 -11 16 11 10 23 -6 23 -6 6 5 -24 15 -68 21 -61 9z"/>
<path d="M341 504 c0 -11 3 -14 6 -6 3 7 2 16 -1 19 -3 4 -6 -2 -5 -13z"/>
<path d="M409 492 c14 -26 41 -48 41 -33 0 6 -4 11 -9 11 -5 0 -13 9 -16 20
-3 11 -11 20 -16 20 -6 0 -6 -7 0 -18z"/>
<path d="M508 484 c12 -9 22 -23 22 -30 0 -8 4 -14 8 -14 21 0 6 29 -22 44
-29 16 -30 16 -8 0z"/>
<path d="M387 476 c-8 -19 18 -76 39 -89 8 -4 14 -13 14 -18 0 -6 -4 -7 -10
-4 -5 3 -10 1 -10 -5 0 -20 25 -4 26 16 3 40 21 77 34 69 3 -2 7 5 7 16 1 12
-5 19 -15 19 -12 0 -14 -2 -4 -8 9 -6 6 -14 -12 -31 -14 -13 -22 -30 -19 -40
3 -10 -3 -8 -16 8 -24 27 -28 50 -6 31 10 -9 15 -9 15 -1 0 6 -4 11 -8 11 -5
0 -13 10 -19 22 -8 19 -10 20 -16 4z"/>
<path d="M501 454 c0 -11 3 -14 6 -6 3 7 2 16 -1 19 -3 4 -6 -2 -5 -13z"/>
<path d="M290 429 c0 -5 5 -7 10 -4 6 3 10 8 10 11 0 2 -4 4 -10 4 -5 0 -10
-5 -10 -11z"/>
<path d="M316 425 c-3 -8 -1 -15 4 -15 6 0 10 7 10 15 0 8 -2 15 -4 15 -2 0
-6 -7 -10 -15z"/>
<path d="M340 418 c0 -11 12 -10 30 2 12 7 10 9 -8 7 -12 0 -22 -5 -22 -9z"/>
<path d="M495 414 c10 -8 24 -14 29 -14 6 0 5 4 -3 9 -11 7 -11 9 0 13 8 3 1
5 -15 5 -28 0 -28 0 -11 -13z"/>
<path d="M366 395 c-3 -8 -10 -15 -16 -15 -6 0 -8 5 -5 10 3 6 1 10 -5 10 -16
0 -6 -24 11 -28 8 -1 20 7 27 18 7 11 8 20 3 20 -5 0 -11 -7 -15 -15z"/>
<path d="M466 394 c-4 -9 -4 -19 -1 -22 3 -3 5 0 5 6 0 7 5 12 11 12 5 0 7 -4
4 -10 -3 -6 1 -7 10 -4 9 4 15 7 13 8 -2 1 -10 7 -19 14 -14 10 -18 10 -23 -4z"/>
<path d="M377 364 c-14 -19 -15 -23 -2 -18 8 3 15 10 15 16 0 5 5 6 10 3 6 -3
10 -2 10 4 0 20 -16 18 -33 -5z"/>
<path d="M530 383 c5 -2 8 -9 4 -14 -3 -5 0 -9 6 -9 15 0 7 23 -8 26 -7 1 -8
0 -2 -3z"/>
<path d="M500 359 c0 -5 5 -7 10 -4 6 3 10 8 10 11 0 2 -4 4 -10 4 -5 0 -10
-5 -10 -11z"/>
<path d="M430 330 c-19 -16 -32 -29 -29 -30 3 0 19 11 35 25 16 14 35 23 42
20 6 -2 12 0 12 5 0 19 -26 10 -60 -20z"/>
<path d="M390 335 c-11 -13 -10 -14 4 -9 9 3 16 10 16 15 0 13 -6 11 -20 -6z"/>
<path d="M500 328 c-14 -13 -28 -22 -32 -20 -5 1 -8 -2 -8 -8 0 -5 3 -10 8
-10 12 1 77 60 66 60 -6 0 -21 -10 -34 -22z"/>
<path d="M431 298 c-7 -13 -10 -20 -6 -16 5 4 14 0 22 -10 13 -16 13 -15 5 3
-5 11 -7 26 -5 33 7 19 -1 14 -16 -10z"/>
<path d="M500 275 c10 -12 8 -16 -11 -24 -13 -5 -18 -10 -11 -10 7 -1 21 4 31
11 16 10 17 14 6 25 -18 18 -30 17 -15 -2z"/>
<path d="M514 239 c-3 -6 -1 -16 5 -22 9 -9 10 -7 5 7 -5 13 -4 17 4 12 7 -4
12 -2 12 3 0 14 -17 14 -26 0z"/>
</g>
</svg>
